<?xml version="1.0" encoding="UTF-8" standalone="no" ?>
<!DOCTYPE svg PUBLIC "-//W3C//DTD SVG 1.1//EN" "http://www.w3.org/Graphics/SVG/1.1/DTD/svg11.dtd">
<svg xmlns="http://www.w3.org/2000/svg" xmlns:xlink="http://www.w3.org/1999/xlink" version="1.1" width="48" height="31" viewBox="0 0 48 31" xml:space="preserve">
<desc>Created with Fabric.js 4.6.0</desc>
<defs>
</defs>
<g transform="matrix(1.02 0 0 1.03 24 15.5)" id="nbWL3-iAvUs3aE9tJ2Pbs"  >
<path style="stroke: none; stroke-width: 1; stroke-dasharray: none; stroke-linecap: butt; stroke-dashoffset: 0; stroke-linejoin: miter; stroke-miterlimit: 4; fill: rgb(35,31,32); fill-opacity: 0.9; fill-rule: nonzero; opacity: 1;" vector-effect="non-scaling-stroke"  transform=" translate(-22.94, -14.5)" d="M 0 18.04804 L 0 10.951550000000001 C 0 10.15318 0.56917 9.46715 1.35459 9.320780000000001 L 18.97638 6.030340000000001 C 19.761509999999998 5.883700000000001 20.33097 5.198430000000001 20.33097 4.399570000000001 L 20.33097 1.6612900000000006 C 20.33097 0.3845300000000007 21.71329 -0.4139499999999994 22.81956 0.22482000000000069 L 45.05649 13.063390000000002 C 46.16236 13.701680000000001 46.16236 15.29831 45.05649 15.936810000000001 L 22.819559999999996 28.775000000000002 C 21.713209999999997 29.414160000000003 20.330969999999997 28.61531 20.330969999999997 27.338530000000002 L 20.330969999999997 24.600250000000003 C 20.330969999999997 23.800910000000002 19.761799999999997 23.115850000000002 18.97638 22.969 L 1.3545899999999982 19.67856 C 0.5694599999999982 19.53192 -1.7763568394002505e-15 18.84645 -1.7763568394002505e-15 18.04829 z" stroke-linecap="round" />
</g>
</svg>