<?xml version="1.0" encoding="UTF-8" standalone="no" ?>
<!DOCTYPE svg PUBLIC "-//W3C//DTD SVG 1.1//EN" "http://www.w3.org/Graphics/SVG/1.1/DTD/svg11.dtd">
<svg xmlns="http://www.w3.org/2000/svg" xmlns:xlink="http://www.w3.org/1999/xlink" version="1.1" width="308" height="16" viewBox="0 0 308 16" xml:space="preserve">
<desc>Created with Fabric.js 4.6.0</desc>
<defs>
</defs>
<g transform="matrix(-1 0 0 -1 153.87 8.19)" id="R-YTJ2UqtcWzSTwyHctjO"  >
<path style="stroke: none; stroke-width: 1; stroke-dasharray: none; stroke-linecap: butt; stroke-dashoffset: 0; stroke-linejoin: miter; stroke-miterlimit: 4; fill: rgb(242,199,68); fill-opacity: 0.4; fill-rule: nonzero; opacity: 1;" vector-effect="non-scaling-stroke"  transform=" translate(-153.18, -7.5)" d="M 305.19636 7.23543 C 305.09016 7.22523 305.06406000000004 7.14303 305.17236 7.11543 C 305.69376000000005 6.98163 305.63751 6.95613 305.44146 6.97083 C 304.22211 7.06998 304.45851 6.78603 303.86931 6.79713 C 303.25611 6.81858 302.58051 6.99228 302.15061 6.97083 C 300.47031 6.89928 298.96970999999996 7.003080000000001 297.42830999999995 7.06998 C 297.35885999999994 7.0591800000000005 297.2837099999999 7.04448 297.22865999999993 7.02963 C 297.16070999999994 7.01328 297.44105999999994 6.93153 297.5417099999999 6.87843 C 297.5714099999999 6.86358 297.5177099999999 6.84258 297.5033099999999 6.82173 C 297.3128099999999 6.605729999999999 297.3128099999999 6.605729999999999 297.9884099999999 6.51783 C 298.40195999999986 6.46113 298.82675999999987 6.40803 299.24390999999986 6.35133 C 298.9272599999999 6.19203 299.6999099999999 6.10773 299.77445999999986 5.96328 C 299.94500999999985 5.65848 299.7821099999999 5.34393 300.3749099999999 5.05443 C 300.6276599999999 4.93638 300.85280999999986 4.81653 300.4628099999999 4.67193 C 300.32540999999986 4.61928 300.4428599999999 4.495229999999999 300.6441599999999 4.43853 C 301.2093599999999 4.27923 301.1441099999999 4.13013 300.7845599999999 3.96423 C 300.59465999999986 3.8763300000000003 300.3255599999999 3.79413 300.8361599999999 3.7063800000000002 C 300.9807599999999 3.6853800000000003 301.01900999999987 3.61743 301.0466099999999 3.57213 C 301.2356099999999 3.27183 301.4571599999999 2.9670300000000003 301.8375599999999 2.66688 C 301.9530599999999 2.57898 302.0663099999999 2.47533 301.9692599999999 2.38803 C 301.8537599999999 2.2854300000000003 301.5132599999999 2.1903300000000003 301.2666599999999 2.09448 C 302.0187599999999 2.06688 301.7027099999999 1.90293 301.95290999999986 1.8151799999999998 C 301.99895999999984 1.7941799999999999 301.9202099999999 1.7620799999999999 301.92740999999984 1.7374799999999997 C 301.93820999999986 1.6950299999999996 301.93100999999984 1.6485299999999996 302.00960999999984 1.6128299999999998 C 302.4875099999998 1.3902299999999999 303.12275999999986 1.1727299999999998 302.45840999999984 0.9102299999999998 C 302.4236099999998 0.8994299999999997 302.50025999999986 0.8571299999999997 302.56820999999985 0.8469299999999997 C 302.81180999999987 0.8110799999999997 303.0896099999999 0.7800299999999998 302.5937099999999 0.7443299999999997 C 301.9274099999999 0.6876299999999997 301.1222099999999 0.6768299999999997 300.6152099999999 0.5844299999999998 C 299.28305999999986 0.32657999999999976 297.6482099999999 0.34082999999999974 296.1384599999999 0.3096299999999998 C 293.9159099999999 0.2692799999999998 291.7050599999999 0.2172299999999998 289.4856599999999 0.1641299999999998 C 286.67795999999987 0.10382999999999981 283.83920999999987 0.10382999999999981 281.00795999999985 0.0783299999999998 C 280.4039099999999 0.07172999999999981 279.78710999999987 0.0891299999999998 279.19940999999983 0.07172999999999981 C 275.85200999999984 -0.0452700000000002 272.4827099999998 0.01607999999999981 269.12615999999986 0.01607999999999981 C 265.02815999999984 0.01142999999999981 260.93030999999985 0.005279999999999809 256.83035999999987 0.07172999999999981 C 252.70325999999986 0.1396799999999998 248.54675999999986 0.1396799999999998 244.40285999999986 0.1641299999999998 C 244.23485999999986 0.1641299999999998 244.06985999999986 0.1641299999999998 243.90860999999987 0.1707299999999998 C 240.67820999999986 0.2172299999999998 237.45185999999987 0.2631299999999998 234.22295999999986 0.3049799999999998 C 231.21350999999987 0.3372299999999998 228.20675999999986 0.3570299999999998 225.20510999999985 0.3877799999999998 C 224.72210999999984 0.3934799999999998 224.24420999999984 0.4501799999999998 223.77755999999985 0.4398299999999998 C 222.14720999999986 0.4039799999999998 220.53080999999986 0.4398299999999998 218.91485999999986 0.4608299999999998 C 218.16425999999987 0.4710299999999998 217.41935999999987 0.5113799999999998 216.67280999999986 0.5068799999999998 C 215.20070999999984 0.4966799999999998 213.73490999999984 0.5002799999999997 212.27975999999987 0.5635799999999997 C 212.07800999999986 0.5682299999999998 211.87325999999987 0.5743799999999998 211.65935999999988 0.5743799999999998 C 210.42020999999988 0.5845799999999998 209.17940999999988 0.5958299999999997 207.93470999999988 0.5994299999999998 C 207.7790099999999 0.5386799999999998 207.5522099999999 0.5427299999999998 207.29750999999987 0.5743799999999998 C 207.06875999999988 0.6055799999999998 206.7246599999999 0.6735299999999997 206.62040999999988 0.6561299999999998 C 205.74020999999988 0.5391299999999998 204.92225999999988 0.6735299999999997 204.08735999999988 0.6775799999999997 C 201.58550999999989 0.6949799999999997 199.09085999999988 0.7306799999999998 196.58540999999988 0.7516799999999997 C 196.2402599999999 0.7542299999999997 195.94670999999988 0.7690799999999997 195.72245999999987 0.8104799999999996 L 195.71630999999988 0.8083799999999997 L 194.64965999999987 0.8083799999999997 L 194.64605999999986 0.8083799999999997 C 194.33510999999987 0.7777799999999997 194.01395999999986 0.7654799999999996 193.65245999999988 0.8083799999999997 L 191.05565999999988 0.8083799999999997 L 188.75795999999988 0.8646299999999997 L 187.6407599999999 0.8083799999999997 L 186.5558099999999 0.8083799999999997 L 185.3441099999999 0.9636299999999997 C 185.1638099999999 0.9600299999999996 184.9851599999999 0.9574799999999997 184.8069599999999 0.9564299999999997 C 183.8573099999999 0.9528299999999996 183.7965599999999 0.9354299999999997 183.47990999999988 1.1019299999999996 C 183.36605999999986 1.1586299999999996 183.38285999999988 1.1943299999999997 183.69590999999988 1.2000299999999997 C 184.2851099999999 1.2046799999999998 184.85600999999988 1.2144299999999997 185.22560999999988 1.3389299999999997 C 185.7204599999999 1.1796299999999997 186.45560999999987 1.1832299999999998 187.1969099999999 1.1943299999999997 C 187.1922599999999 1.1463299999999996 186.85625999999988 1.0834799999999998 187.1534099999999 1.0584299999999998 C 187.5828599999999 1.0813799999999998 188.21390999999988 1.1569799999999997 189.1217099999999 1.3540799999999997 C 189.1677599999999 1.3642799999999997 189.2079599999999 1.3704299999999998 189.2529599999999 1.3801799999999997 C 189.3780599999999 1.4088299999999998 189.50930999999989 1.4343299999999997 189.64415999999989 1.4572799999999997 C 191.50580999999988 1.8117299999999996 192.7766099999999 1.7871299999999997 193.79930999999988 1.7580299999999998 C 194.91500999999988 1.7257799999999999 197.20130999999986 1.5736799999999997 197.20850999999988 1.5732299999999997 C 197.48420999999988 1.6090799999999996 197.77580999999986 1.6518299999999997 198.16235999999986 1.6488299999999998 C 198.45140999999987 1.6422299999999999 198.75155999999987 1.69128 199.04105999999987 1.7167799999999998 C 199.09055999999987 1.8301799999999997 198.81935999999988 1.8934799999999998 198.37625999999986 1.9327799999999997 C 198.26285999999985 1.9491299999999998 198.21380999999985 1.9848299999999997 198.11990999999986 2.0170799999999995 C 198.24860999999987 2.0206799999999996 198.38390999999987 2.0380799999999994 198.50285999999986 2.0314799999999997 C 199.08290999999986 2.01048 199.69055999999986 1.9390799999999997 200.22305999999986 1.9599299999999997 C 201.61235999999985 2.0151299999999996 202.98995999999985 2.02173 204.36590999999987 2.00433 L 205.31765999999988 2.08908 C 205.31765999999988 2.08908 205.33145999999988 2.08968 205.34165999999988 2.09058 C 205.08275999999987 2.09523 204.8228099999999 2.09883 204.56450999999987 2.10438 C 203.98040999999986 2.11518 203.41100999999986 2.14023 202.83260999999987 2.15088 C 202.38635999999988 2.16108 201.98345999999987 2.02623 201.46730999999988 2.1442799999999997 C 201.1379099999999 2.21778 200.6600099999999 2.2111799999999997 200.27960999999988 2.15088 C 199.95170999999988 2.0941799999999997 199.69040999999987 2.1400799999999998 199.38095999999987 2.15088 C 198.34850999999986 2.20758 196.27310999999986 2.21778 195.29930999999988 2.18208 C 195.11645999999988 2.17548 194.90405999999987 2.19648 194.71880999999988 2.21793 C 194.4752099999999 2.23938 194.23220999999987 2.30013 194.00855999999987 2.29563 C 193.60625999999988 2.28588 193.20545999999987 2.28993 192.80450999999988 2.2987800000000003 L 192.7448099999999 2.2987800000000003 L 192.7437599999999 2.2998300000000005 C 192.3710099999999 2.3085300000000006 191.9978099999999 2.3212800000000007 191.6250599999999 2.3346300000000006 C 191.3982599999999 2.317230000000001 191.1798599999999 2.3040300000000005 190.9908599999999 2.2987800000000007 C 190.7426099999999 2.2921800000000006 190.4940599999999 2.324280000000001 190.26065999999992 2.3739300000000005 C 189.60710999999992 2.3847300000000007 188.9514599999999 2.3779800000000004 188.29130999999992 2.3248800000000007 C 188.20505999999992 2.316630000000001 187.96910999999992 2.3734800000000007 187.89605999999992 2.402580000000001 C 187.86635999999993 2.418930000000001 188.0768099999999 2.480280000000001 188.1983099999999 2.480280000000001 C 188.7110099999999 2.502330000000001 189.2220599999999 2.509380000000001 189.73460999999992 2.519130000000001 C 189.66005999999993 2.5441800000000008 189.59420999999992 2.569230000000001 189.53090999999992 2.593680000000001 L 187.00970999999993 2.6208300000000007 C 186.93965999999992 2.6142300000000005 186.84470999999994 2.6115300000000006 186.71255999999994 2.6151300000000006 C 186.57410999999993 2.6202300000000007 186.43520999999993 2.6212800000000005 186.29690999999994 2.6259300000000008 L 184.34900999999994 2.5018800000000008 C 184.37555999999992 2.4982800000000007 184.39910999999992 2.494230000000001 184.42505999999995 2.4910800000000006 C 184.29485999999994 2.4762300000000006 184.17230999999995 2.4552300000000007 184.04255999999995 2.4517800000000007 C 183.50225999999995 2.4517800000000007 182.94935999999996 2.4517800000000007 182.40965999999995 2.4517800000000007 C 182.12570999999994 2.4517800000000007 182.12975999999995 2.480880000000001 182.13695999999996 2.5441800000000008 C 182.14925999999997 2.6371800000000007 182.14775999999995 2.6877300000000006 182.05835999999996 2.714280000000001 C 181.36085999999997 2.745930000000001 180.00380999999996 2.712180000000001 179.27870999999996 2.693280000000001 C 179.25005999999996 2.692680000000001 179.22560999999996 2.692230000000001 179.20010999999997 2.691780000000001 C 179.02640999999997 2.687130000000001 178.85285999999996 2.682030000000001 178.67870999999997 2.678430000000001 C 178.67360999999997 2.685630000000001 178.67210999999998 2.693280000000001 178.66790999999998 2.701380000000001 C 178.53006 2.711580000000001 178.38755999999998 2.727480000000001 178.17980999999997 2.749380000000001 C 177.88925999999998 2.7519300000000007 177.62225999999998 2.755980000000001 177.61910999999998 2.766330000000001 C 177.61085999999997 2.783280000000001 177.59300999999996 2.7943800000000008 177.57770999999997 2.8077300000000007 C 177.30455999999998 2.8317300000000007 176.96195999999998 2.8588800000000005 176.50805999999997 2.8894800000000007 C 176.50550999999996 2.8894800000000007 176.50400999999997 2.8894800000000007 176.50145999999998 2.8900800000000006 C 176.45286 2.8906800000000006 176.40545999999998 2.8915800000000007 176.36300999999997 2.8947300000000005 C 176.35895999999997 2.8968300000000005 176.35280999999998 2.8983300000000005 176.34860999999998 2.9004300000000005 C 175.49285999999998 2.9586300000000003 175.13285999999997 2.9862300000000004 174.93021 2.9979300000000006 C 174.67941 2.980530000000001 174.44405999999998 2.9790300000000007 174.18831 2.9943300000000006 C 174.18516 2.9943300000000006 174.18321 2.9943300000000006 174.18066 2.9943300000000006 C 173.81346 2.9881800000000007 173.38056 3.0081300000000004 172.99866 3.0331800000000007 C 172.68456 3.0132300000000005 172.39161000000001 2.9703300000000006 172.13016 2.9161800000000007 C 171.99275999999998 2.8839300000000008 171.92541 2.8176300000000007 171.76611 2.9013300000000006 C 171.69411 2.9406300000000005 171.32136 2.9937300000000007 171.76611 3.0459300000000007 C 171.87951 3.056130000000001 171.95046 3.086280000000001 172.03476 3.1128300000000007 C 171.38166 3.1383300000000007 170.93856 3.0816300000000005 170.66376 2.9371800000000006 C 170.61066 2.9116800000000005 170.15315999999999 2.8953300000000004 170.11070999999998 2.9049300000000007 C 169.90236 2.972880000000001 169.75581 3.050430000000001 169.64046 3.1275300000000006 C 169.62770999999998 3.1383300000000007 169.88916 3.1740300000000006 170.04276 3.1908300000000005 C 170.23325999999997 3.2056800000000005 170.42931 3.2163300000000006 170.63616 3.2311800000000006 C 170.42736 3.241380000000001 170.22606 3.2623800000000007 170.02656 3.2623800000000007 C 169.09731 3.273180000000001 168.16700999999998 3.2670300000000005 167.24285999999998 3.273180000000001 C 167.11670999999998 3.276780000000001 167.01456 3.3334800000000007 166.90070999999998 3.365580000000001 C 167.09270999999998 3.381930000000001 167.28110999999998 3.396780000000001 167.47715999999997 3.408030000000001 C 167.69720999999996 3.319080000000001 167.91470999999996 3.315630000000001 168.13220999999996 3.408030000000001 C 168.65765999999996 3.387030000000001 169.17950999999996 3.344730000000001 169.70840999999996 3.340530000000001 C 170.81585999999996 3.330330000000001 171.93920999999995 3.283830000000001 173.03795999999997 3.366030000000001 C 173.26160999999996 3.3838800000000013 173.34080999999998 3.372180000000001 173.36930999999996 3.3507300000000013 L 173.57765999999995 3.3528300000000013 C 173.65175999999994 3.3840300000000014 173.73035999999996 3.4141800000000013 173.83190999999997 3.4390800000000015 C 173.88860999999997 3.4539300000000015 174.26390999999995 3.4437300000000013 174.30020999999996 3.4227300000000014 C 174.34460999999996 3.401280000000001 174.40445999999997 3.3813300000000015 174.45845999999997 3.3603300000000016 L 175.80335999999997 3.3235800000000015 C 175.87895999999998 3.3526800000000017 175.96265999999997 3.3802800000000017 176.06525999999997 3.4017300000000015 C 176.23385999999996 3.4390800000000015 176.48045999999997 3.4537800000000014 176.69480999999996 3.4794300000000016 L 177.10070999999996 3.3339300000000014 C 178.05095999999998 3.2424300000000015 179.00570999999997 3.2296800000000014 179.95640999999998 3.3405300000000016 C 179.90330999999998 3.3823800000000017 179.85786 3.4227300000000014 179.80835999999996 3.4651800000000015 C 180.05495999999997 3.4605300000000017 180.30260999999996 3.4543800000000013 180.53285999999997 3.4396800000000014 C 180.58595999999997 3.4330800000000012 180.62990999999997 3.3972300000000013 180.61715999999998 3.3727800000000014 C 180.60636 3.3507300000000013 180.60530999999997 3.3324300000000013 180.60890999999998 3.3156300000000014 L 181.48310999999998 3.3871800000000016 L 183.84500999999997 3.555180000000002 L 184.21730999999997 3.5572800000000018 C 183.17255999999998 3.558780000000002 182.12795999999997 3.566580000000002 181.08695999999998 3.5634300000000017 C 180.69740999999996 3.5634300000000017 180.20315999999997 3.5173800000000015 179.91980999999998 3.6411300000000018 C 179.88305999999997 3.655530000000002 179.38671 3.6196800000000016 179.10290999999998 3.5986800000000017 C 179.26790999999997 3.5005800000000016 179.17490999999998 3.4602300000000015 178.70060999999998 3.5215800000000015 C 178.41665999999998 3.5563800000000017 178.15176 3.6303300000000016 177.87500999999997 3.6303300000000016 C 176.02310999999997 3.6195300000000015 174.19625999999997 3.701880000000002 172.35005999999998 3.7182300000000015 C 171.05570999999998 3.7228800000000013 169.71230999999997 3.6513300000000015 168.49881 3.7290300000000016 C 167.30406 3.800580000000002 165.97145999999998 3.7290300000000016 164.89206 3.9129300000000016 C 164.71070999999998 3.9405300000000016 164.35536 3.9190800000000015 164.07921 3.9237300000000017 C 162.74660999999998 3.940080000000002 161.40680999999998 3.949230000000002 160.06911 3.965580000000002 C 159.80361 3.919080000000002 159.34461 3.944580000000002 158.93961 3.975780000000002 C 157.98066 3.9865800000000022 157.02545999999998 3.996780000000002 156.07581 4.008030000000002 C 155.95116 4.008030000000002 155.83070999999998 4.008030000000002 155.70965999999999 4.008030000000002 C 155.62131 3.9757800000000025 155.52125999999998 3.9447300000000025 155.40170999999998 3.9028800000000023 C 154.66745999999998 3.640380000000002 154.41170999999997 3.9595800000000025 154.08035999999998 3.9192300000000024 C 153.35526 3.8313300000000026 153.02961 3.8818800000000024 152.75901 3.9969300000000025 C 152.01245999999998 3.8983800000000026 151.72505999999998 4.007730000000002 151.11906 4.064880000000002 C 151.07871 4.068480000000002 151.04046 4.068480000000002 150.99801 4.0750800000000025 C 150.56601 4.079730000000002 150.11975999999999 4.083330000000003 149.68430999999998 4.094580000000002 C 149.22680999999997 4.0899300000000025 148.75041 4.080180000000002 148.31180999999998 4.083780000000003 C 147.29421 4.094580000000002 147.53000999999998 3.9555300000000027 147.32180999999997 3.8677800000000024 C 147.12770999999998 3.7860300000000024 146.98880999999997 3.7023300000000026 146.46290999999997 3.8319300000000025 C 145.33550999999997 4.122030000000002 144.80855999999997 4.193430000000003 143.63330999999997 4.080180000000002 C 142.49105999999998 3.966330000000002 141.53780999999998 4.012230000000002 140.40845999999996 4.0377300000000025 C 139.37090999999995 4.065330000000002 138.23435999999995 4.047930000000003 137.25155999999996 3.9973800000000024 C 136.64540999999994 3.9661800000000023 136.23035999999996 3.8416800000000024 135.73205999999996 3.7537800000000026 C 135.47015999999996 3.8461800000000026 135.23975999999996 3.9453300000000024 134.91350999999997 4.026480000000003 C 134.81285999999997 4.054080000000003 134.37935999999996 4.075080000000003 134.20175999999998 4.065330000000003 C 132.46836 3.924330000000003 131.27150999999998 4.094430000000003 129.91895999999997 4.255830000000003 C 129.26390999999998 4.327380000000003 128.19470999999996 4.352880000000003 127.38740999999997 4.333530000000003 C 125.52020999999998 4.285980000000003 123.58760999999997 4.236030000000003 121.88540999999998 4.110930000000003 C 120.52730999999999 4.012380000000003 119.51015999999998 4.054230000000003 118.39355999999998 4.161480000000004 C 116.71325999999998 4.3269300000000035 116.36195999999998 4.344330000000004 115.75280999999998 4.075680000000004 C 115.26215999999998 3.858180000000004 114.64730999999998 3.8790300000000038 113.79980999999998 3.9459300000000037 C 112.10510999999998 4.080780000000003 110.23085999999998 4.151730000000004 108.94775999999997 4.044480000000004 C 108.06035999999997 3.960180000000004 107.32415999999998 3.960180000000004 106.44800999999997 4.012230000000003 C 105.27830999999996 4.0837800000000035 104.17130999999996 4.143030000000003 104.06300999999996 3.8253300000000032 C 104.05370999999997 3.806880000000003 103.26335999999996 3.779880000000003 102.84980999999996 3.7860300000000033 C 102.52400999999996 3.7896300000000034 102.18710999999996 3.836580000000003 101.90870999999996 3.873930000000003 C 99.89345999999996 4.143030000000003 97.92050999999995 4.359030000000003 95.67650999999995 3.9495300000000033 C 95.37980999999995 3.8983800000000035 94.15190999999994 3.892830000000003 94.00535999999995 3.9300300000000035 C 92.94950999999995 4.213980000000004 91.33145999999995 4.015830000000004 90.08300999999996 4.103730000000003 C 88.95200999999996 4.181430000000003 88.09370999999996 4.125180000000003 87.55145999999996 3.959130000000003 C 86.85605999999996 3.753330000000003 85.86755999999997 3.753330000000003 84.67220999999996 3.814530000000003 C 83.69645999999996 3.8733300000000033 82.69730999999996 3.930030000000003 81.68885999999996 3.9487800000000033 C 80.61815999999996 3.975330000000003 79.00775999999996 4.046880000000003 78.55190999999996 3.9589800000000035 C 77.27240999999997 3.7107300000000034 76.03010999999996 3.8143800000000034 74.66075999999997 3.8812800000000034 C 73.54820999999997 3.9333300000000033 72.40250999999996 3.9757800000000034 71.30780999999996 4.043130000000003 C 70.22285999999995 4.110030000000004 69.99560999999996 4.015530000000004 69.80870999999996 3.873030000000003 C 69.74120999999997 3.820380000000003 69.41495999999997 3.785130000000003 69.21380999999997 3.738180000000003 C 69.17195999999997 3.794880000000003 69.18110999999996 3.856230000000003 69.08405999999997 3.918480000000003 C 68.84960999999997 4.063980000000003 68.55305999999996 4.022130000000002 68.30795999999997 3.918480000000003 C 68.12510999999996 3.8407800000000027 67.96940999999997 3.746430000000003 67.45685999999996 3.881130000000003 C 66.56885999999996 4.114530000000003 66.57815999999997 4.114530000000003 65.93945999999997 3.939930000000003 C 64.91465999999997 3.660630000000003 64.30145999999996 3.639630000000003 62.70185999999997 3.809730000000003 C 62.298959999999965 3.8521800000000033 61.67300999999997 3.9543300000000032 61.58165999999997 3.9445800000000033 C 60.46340999999997 3.7888800000000034 58.82150999999997 4.032480000000003 58.43180999999997 3.9445800000000033 C 57.59180999999997 3.7576800000000032 56.35985999999997 3.7791300000000034 55.39535999999997 3.6801300000000032 C 53.78285999999997 3.526380000000003 53.73905999999997 3.541230000000003 52.20530999999997 3.764430000000003 C 51.84485999999997 3.8211300000000032 51.30875999999997 3.852330000000003 51.08510999999997 3.919230000000003 C 50.217659999999974 4.167480000000003 49.14335999999997 4.178130000000003 47.94815999999997 4.0228800000000025 C 47.18120999999997 3.9243300000000025 47.07500999999997 4.054080000000003 46.609859999999976 4.094430000000003 C 44.88965999999998 4.250130000000003 43.05920999999998 4.167930000000003 41.28200999999998 4.1322300000000025 C 41.044109999999975 4.122030000000002 40.64885999999998 4.083630000000002 40.65245999999998 4.065330000000002 C 40.682159999999975 3.9697800000000023 40.824509999999975 3.873780000000002 40.934309999999975 3.779880000000002 C 40.37615999999998 3.8253300000000023 39.83810999999997 3.882480000000002 39.26165999999998 3.909630000000002 C 38.974109999999975 3.924480000000002 38.53715999999998 3.873780000000002 38.278709999999975 3.836130000000002 C 37.482659999999974 3.707880000000002 37.07630999999998 3.7645800000000023 36.65555999999997 3.909630000000002 C 36.49625999999997 3.960180000000002 36.34970999999997 4.167480000000002 35.566409999999976 3.960180000000002 C 35.25545999999998 3.882480000000002 34.515659999999976 3.846780000000002 33.97235999999997 3.796230000000002 C 33.81305999999997 3.909630000000002 33.62255999999997 4.026480000000002 33.498509999999975 4.1470800000000025 C 33.49535999999998 4.150230000000002 33.501059999999974 4.153230000000002 33.50060999999997 4.156830000000003 L 32.48915999999997 4.197180000000003 C 32.39210999999997 4.172130000000003 32.29355999999997 4.147080000000003 32.19905999999997 4.122630000000003 C 31.990259999999967 4.189530000000003 31.79615999999997 4.218630000000003 31.60835999999997 4.232430000000003 L 31.37450999999997 4.241730000000002 C 30.73730999999997 4.235580000000002 30.18530999999997 4.031280000000002 29.55935999999997 4.101780000000002 C 29.11505999999997 4.152330000000003 28.73570999999997 4.157430000000002 28.38395999999997 4.144680000000003 C 28.24460999999997 4.132380000000003 28.09130999999997 4.116030000000003 27.90860999999997 4.089480000000003 C 26.935409999999973 3.945930000000003 26.13020999999997 4.020030000000003 25.702859999999973 3.984780000000003 C 25.701809999999973 3.984780000000003 25.701359999999973 3.984780000000003 25.700309999999973 3.984780000000003 C 25.145309999999974 3.9316800000000027 24.929759999999973 3.927630000000003 24.774059999999974 3.9888300000000028 C 24.731159999999974 3.9877800000000025 24.688259999999975 3.9873300000000027 24.637709999999974 3.984780000000003 C 24.094859999999972 3.961830000000003 23.664509999999975 3.817830000000003 23.313209999999973 3.865830000000003 C 22.961909999999975 3.913830000000003 22.547309999999975 3.929730000000003 22.547309999999975 3.929730000000003 L 22.259759999999975 3.9936300000000027 L 21.701159999999977 3.961380000000003 L 21.110909999999976 4.041030000000003 L 21.701159999999977 4.089030000000003 L 23.282459999999976 4.359630000000003 C 22.843259999999976 4.363680000000003 22.368959999999976 4.366830000000003 21.853259999999974 4.368930000000002 C 20.554859999999973 4.374030000000002 19.244159999999972 4.379130000000003 17.936009999999975 4.384230000000002 C 17.776709999999973 4.390830000000002 17.632109999999976 4.390830000000002 17.506109999999975 4.384230000000002 C 16.717259999999975 4.384230000000002 15.933959999999974 4.390830000000002 15.152309999999975 4.395030000000002 C 14.970959999999975 4.437480000000002 14.830109999999975 4.497630000000002 14.727509999999976 4.592730000000002 C 15.000659999999975 4.599930000000002 15.281009999999975 4.602480000000003 15.562859999999976 4.604580000000002 C 14.337959999999976 4.690830000000002 13.595009999999975 4.768530000000002 13.595009999999975 4.768530000000002 L 13.589309999999976 4.768530000000002 C 12.753509999999975 4.734330000000002 11.626109999999976 4.720530000000002 10.422209999999977 4.7199300000000015 C 10.635209999999976 4.716780000000002 10.545809999999976 4.851180000000001 10.776059999999976 4.8552300000000015 C 10.549259999999975 4.891080000000001 10.685609999999976 4.830180000000001 10.416509999999976 4.851180000000001 C 10.074359999999976 4.882380000000001 9.677159999999976 4.887030000000001 9.307559999999976 4.907880000000001 C 7.641959999999976 4.995780000000002 7.641959999999976 4.995780000000002 7.991759999999975 5.293980000000001 C 8.008109999999975 5.3041800000000014 8.068409999999975 5.269380000000001 8.090309999999976 5.285730000000001 C 8.147009999999975 5.285730000000001 8.344109999999976 5.319480000000001 8.393609999999976 5.325630000000001 C 8.360909999999976 5.325630000000001 8.082059999999975 5.369580000000001 8.034659999999976 5.373630000000001 C 8.073059999999975 5.394630000000001 8.169509999999976 5.392530000000002 8.156759999999975 5.419080000000001 C 8.144009999999975 5.454930000000001 8.112809999999975 5.490630000000001 8.065259999999975 5.525880000000001 C 8.369159999999976 5.517180000000001 8.674409999999975 5.507430000000001 8.977709999999975 5.497230000000001 L 8.769809999999975 5.583480000000001 C 8.510459999999975 5.5881300000000005 8.250509999999975 5.59008 7.992209999999975 5.58858 C 7.977359999999975 5.59938 7.966709999999975 5.61003 7.9554599999999756 5.620830000000001 C 7.920659999999976 5.610030000000001 7.889609999999975 5.599380000000001 7.858409999999975 5.58858 C 7.4958599999999755 5.5824300000000004 7.129709999999975 5.57223 6.778559999999976 5.55273 C 7.080809999999976 5.55273 7.388159999999976 5.5465800000000005 7.703309999999975 5.53638 C 7.628159999999975 5.51088 7.5332099999999755 5.48583 7.432109999999975 5.46483 C 7.3278599999999745 5.4372300000000005 7.199759999999975 5.40813 7.073159999999975 5.37693 C 6.405359999999975 5.39178 5.6072099999999745 5.40813 4.9742099999999745 5.39733 C 4.686659999999975 5.42283 4.457909999999974 5.45403 4.377359999999975 5.48628 C 4.2017099999999745 5.55783 4.159859999999974 5.63898 4.159859999999974 5.72328 C 5.620109999999975 5.70888 7.184009999999974 5.67783 8.503859999999975 5.70078 L 8.984309999999974 5.6521799999999995 C 8.896409999999975 5.658779999999999 8.850509999999973 5.841629999999999 8.760659999999975 5.85183 C 8.885759999999975 5.85183 9.183959999999974 5.75883 9.273809999999974 5.763929999999999 L 9.411659999999975 5.8099799999999995 C 9.429509999999974 5.81718 9.450509999999975 5.823779999999999 9.471959999999974 5.829929999999999 L 10.185809999999975 6.068879999999999 C 9.395909999999976 6.109829999999999 8.790359999999975 6.148079999999999 10.204259999999975 6.281879999999999 C 10.348859999999975 6.296729999999999 10.200659999999974 6.39528 10.184309999999975 6.456479999999999 C 9.495959999999975 6.395129999999999 8.899109999999975 6.384929999999999 8.620859999999976 6.544379999999999 C 8.157659999999975 6.519779999999999 7.7150099999999755 6.487679999999999 7.248359999999975 6.477479999999999 C 6.970109999999975 6.472829999999999 6.681059999999975 6.472829999999999 6.399209999999975 6.477479999999999 C 6.9501599999999755 6.493829999999999 7.392809999999975 6.519929999999999 7.656359999999975 6.565379999999999 L 6.711809999999975 6.565379999999999 C 5.757959999999975 6.576179999999999 6.245159999999975 6.664529999999999 6.538109999999975 6.709979999999999 C 6.647909999999975 6.703379999999999 6.759809999999975 6.695129999999999 6.871109999999975 6.688979999999999 C 7.097909999999975 6.674129999999999 7.363409999999975 6.678779999999999 7.617659999999975 6.678779999999999 C 7.584959999999975 6.735479999999999 7.549709999999975 6.798779999999999 7.517009999999975 6.855479999999999 C 6.841409999999975 6.844679999999999 6.492209999999975 6.891329999999999 6.263009999999975 6.953579999999999 C 6.749609999999975 6.992429999999999 7.233659999999975 7.028129999999999 7.507859999999974 7.0638299999999985 L 5.572709999999974 7.479929999999999 C 4.839509999999974 7.504979999999999 4.140959999999974 7.530479999999999 3.325559999999974 7.572929999999999 C 3.347609999999974 7.594379999999998 3.365909999999974 7.615379999999998 3.3935099999999743 7.629629999999999 C 3.4262099999999744 7.655129999999999 3.212159999999974 7.6975799999999985 3.1080599999999743 7.728179999999999 C 2.9523599999999743 7.703579999999999 2.7618599999999742 7.676129999999999 2.6378099999999742 7.640279999999999 C 2.612309999999974 7.635629999999999 2.588309999999974 7.629479999999999 2.566259999999974 7.619279999999999 C 2.503859999999974 7.625879999999999 2.445209999999974 7.629479999999999 2.377859999999974 7.635629999999999 C 2.3099099999999737 7.473779999999999 1.2024599999999739 7.640279999999999 0.00005999999997374772 7.721429999999999 C 0.8237099999999737 7.717829999999999 2.7087599999999736 7.919129999999999 0.46670999999997376 7.933829999999999 C 1.0508099999999736 7.950179999999999 1.7258099999999739 7.9548299999999985 2.432459999999974 7.9548299999999985 C 2.649959999999974 7.922579999999998 2.871659999999974 7.887329999999999 3.052859999999974 7.862429999999999 C 3.3765599999999742 7.883429999999999 3.600209999999974 7.893629999999999 3.817709999999974 7.904279999999999 C 3.676709999999974 7.922729999999999 3.5337599999999743 7.943579999999999 3.3969599999999742 7.965029999999999 C 4.962359999999974 7.9681799999999985 6.690209999999974 7.961879999999999 8.327609999999975 7.965629999999999 L 8.328659999999974 7.965629999999999 L 10.187159999999974 7.975829999999999 C 10.202009999999973 7.975829999999999 10.216859999999974 7.97643 10.231559999999973 7.97643 L 12.289259999999974 8.01273 C 12.449159999999974 8.01738 12.604259999999973 8.02248 12.753959999999974 8.027579999999999 L 12.743759999999975 8.030129999999998 C 12.535409999999976 8.085329999999997 12.137159999999975 8.011679999999998 11.341709999999974 8.032229999999998 C 11.376509999999975 8.092529999999998 11.864609999999974 8.111429999999999 12.356759999999975 8.130329999999999 L 11.412659999999974 8.374979999999999 C 11.222159999999974 8.372879999999999 11.031659999999974 8.37033 10.841759999999974 8.368379999999998 C 10.841759999999974 8.382779999999999 10.818209999999974 8.38938 10.785059999999975 8.399579999999998 C 10.905659999999974 8.42058 10.987859999999975 8.444579999999998 11.046509999999975 8.470079999999998 L 10.498109999999976 8.612129999999997 L 13.785809999999977 8.612129999999997 L 16.562309999999975 8.612129999999997 L 16.923809999999975 8.612129999999997 C 16.812509999999975 8.635079999999997 16.774709999999974 8.661179999999996 16.968809999999976 8.689829999999997 C 17.492159999999977 8.662679999999996 18.053759999999976 8.639279999999998 18.570059999999977 8.612129999999997 L 18.570659999999975 8.612129999999997 L 18.571259999999974 8.612129999999997 C 19.362659999999973 8.569679999999996 20.044859999999975 8.517179999999996 20.298059999999975 8.426729999999997 C 20.154509999999974 8.414429999999998 20.029409999999974 8.406779999999998 19.911059999999974 8.401229999999998 L 19.913159999999973 8.402279999999998 L 21.12575999999997 8.366429999999998 L 21.465809999999973 8.467529999999998 C 21.148709999999973 8.474129999999999 20.983259999999973 8.494079999999999 21.239009999999972 8.550779999999998 C 21.429509999999972 8.556479999999997 21.605159999999973 8.556479999999997 21.763859999999973 8.556479999999997 L 22.147859999999973 8.548229999999997 C 22.156559999999974 8.551829999999997 22.165709999999972 8.552879999999996 22.173959999999973 8.556479999999997 C 22.807559999999974 8.549879999999996 23.262509999999974 8.529929999999997 23.774609999999974 8.515529999999996 L 24.348509999999973 8.504279999999996 C 24.555809999999973 8.501729999999997 24.776909999999972 8.500229999999997 25.03115999999997 8.501729999999997 C 24.95405999999997 8.470529999999997 24.89630999999997 8.450129999999996 24.85595999999997 8.434829999999996 L 25.213859999999972 8.385779999999997 L 25.21595999999997 8.385179999999997 C 25.31255999999997 8.390279999999997 25.40645999999997 8.394929999999997 25.51055999999997 8.398979999999996 L 25.56110999999997 8.613479999999996 L 28.72055999999997 8.477129999999995 C 28.72055999999997 8.477129999999995 28.740509999999972 8.477129999999995 28.772609999999972 8.477729999999996 C 29.24645999999997 8.482829999999996 29.73770999999997 8.485979999999996 30.240509999999972 8.486429999999995 C 30.32780999999997 8.487029999999995 30.399809999999974 8.487029999999995 30.443309999999972 8.487029999999995 C 30.73085999999997 8.486429999999995 34.27265999999997 8.613629999999995 34.27265999999997 8.613629999999995 L 36.066359999999975 8.432279999999995 C 37.46285999999998 8.476229999999996 38.996609999999976 8.478329999999994 40.712159999999976 8.463479999999995 L 40.719809999999974 8.464079999999996 L 40.940909999999974 8.461529999999996 C 41.597009999999976 8.455379999999996 42.272459999999974 8.447729999999996 42.985859999999974 8.437979999999996 L 43.00220999999998 8.578379999999996 C 43.90085999999998 8.768279999999995 44.82500999999998 8.501729999999995 46.31285999999998 8.607479999999995 C 46.24700999999998 8.580929999999995 45.94265999999998 8.576279999999995 45.69860999999998 8.567129999999995 L 46.60850999999998 8.505779999999996 C 47.03180999999998 8.517029999999997 47.38565999999998 8.519129999999997 47.35955999999998 8.455229999999997 L 48.28175999999998 8.393429999999997 L 51.472859999999976 8.813129999999997 L 50.787659999999974 8.489429999999997 C 51.168659999999974 8.477129999999997 51.53420999999997 8.464379999999997 51.89615999999997 8.452079999999997 L 52.76465999999997 8.653829999999997 C 53.41010999999997 8.988329999999998 53.99360999999997 9.293579999999997 53.99360999999997 9.293579999999997 L 53.99360999999997 9.293579999999997 C 53.57435999999997 9.276179999999997 53.33540999999997 9.240479999999996 52.41995999999997 9.264479999999997 C 52.508309999999966 9.342179999999997 53.02550999999997 9.380879999999998 53.74895999999997 9.399779999999998 L 53.572709999999965 9.475829999999998 C 51.358859999999964 9.462029999999999 50.196809999999964 9.574379999999998 49.10000999999997 9.445679999999998 C 49.22825999999997 9.401729999999997 50.86820999999997 9.295079999999997 50.996309999999966 9.397679999999998 C 52.56680999999997 9.377729999999998 49.759109999999964 9.217979999999997 51.47930999999996 9.185279999999997 C 51.00905999999996 9.086729999999998 48.15950999999996 9.357329999999997 49.59425999999996 9.105029999999998 C 49.169459999999965 9.141329999999998 48.52355999999996 9.156629999999998 47.69990999999996 9.156629999999998 C 50.04650999999996 9.476729999999998 46.95950999999996 9.546779999999998 44.18045999999996 9.506429999999998 L 45.15410999999996 9.228179999999998 L 41.38850999999996 9.228179999999998 L 38.84420999999996 9.503879999999999 C 38.78645999999996 9.50448 38.72825999999996 9.504929999999998 38.670059999999964 9.505379999999999 L 36.697709999999965 9.228029999999999 L 35.62850999999996 9.228029999999999 L 34.11110999999996 9.556379999999999 C 33.89555999999996 9.562079999999998 33.68165999999996 9.56823 33.47135999999996 9.57588 C 33.14915999999996 9.37818 30.461009999999963 9.53748 26.85530999999996 9.50793 C 27.40835999999996 9.75708 29.31890999999996 9.65808 31.09820999999996 9.74643 C 31.010309999999958 9.71373 30.62390999999996 9.70968 30.62795999999996 9.66933 C 32.99855999999996 9.70308 32.78570999999996 9.72708 35.19860999999996 9.73518 L 35.19860999999996 9.73518 L 33.06020999999996 9.89853 L 35.29190999999996 10.19628 C 35.29250999999996 10.19628 35.29340999999996 10.19628 35.29400999999996 10.19628 L 35.304209999999955 10.19778 L 34.01750999999995 10.34538 C 34.01750999999995 10.34538 35.12600999999995 10.57413 36.555059999999955 10.72113 C 35.646659999999954 10.76868 34.43000999999995 10.70073 32.922809999999956 10.712430000000001 C 33.978209999999955 10.811580000000001 35.663159999999955 10.819680000000002 37.496609999999954 10.80033 C 39.351509999999955 10.91928 45.31415999999995 10.80033 45.31415999999995 10.80033 L 45.58325999999995 10.778880000000001 C 47.47340999999995 10.79418 49.10120999999995 10.803930000000001 50.695259999999955 10.81413 L 51.12155999999995 10.85298 L 51.81395999999995 10.82133 C 53.17730999999995 10.831529999999999 54.55940999999995 10.84338 56.10800999999995 10.86228 C 55.81745999999995 10.81218 55.39880999999995 10.77138 55.07360999999995 10.72443 L 55.07420999999995 10.72443 L 54.98015999999995 10.48593 C 55.05020999999995 10.48533 55.12055999999995 10.48488 55.187459999999945 10.48443 C 55.14245999999994 10.46913 55.06025999999994 10.45683 54.964859999999945 10.446629999999999 L 54.93260999999995 10.36548 C 56.461859999999945 10.37628 56.577659999999945 10.37673 56.99900999999995 10.248479999999999 L 57.50345999999995 10.248479999999999 L 57.69590999999995 10.214279999999999 C 61.13360999999995 10.193879999999998 60.252359999999946 10.373129999999998 63.71255999999995 10.332779999999998 C 64.34420999999995 10.213829999999998 64.74860999999994 10.080029999999997 67.03790999999994 10.111079999999998 C 67.54850999999994 10.121879999999997 67.35095999999994 10.193279999999998 67.97900999999995 10.193279999999998 C 67.92380999999995 10.297529999999998 66.21290999999995 10.264829999999998 65.60525999999994 10.323479999999998 C 67.09865999999994 10.411379999999998 68.96390999999994 10.425629999999998 70.81055999999994 10.352579999999998 C 70.84895999999993 10.228529999999997 69.42335999999995 10.286729999999999 68.44760999999994 10.317779999999997 C 68.69840999999994 10.283579999999997 68.93780999999994 10.246229999999997 68.93270999999994 10.190129999999998 C 70.61105999999994 10.199429999999998 71.76440999999994 10.199429999999998 72.23825999999994 10.219229999999998 C 72.97970999999994 10.082879999999998 70.49510999999994 10.162529999999999 70.75595999999994 10.004279999999998 L 84.30920999999995 10.004279999999998 L 70.14065999999995 11.142329999999998 L 71.89610999999995 11.142329999999998 C 73.00820999999995 11.265929999999997 78.26360999999994 11.121329999999997 77.38325999999995 11.264429999999997 C 77.41190999999995 11.344679999999997 79.31480999999995 11.252579999999996 78.84050999999995 11.142329999999998 L 79.09535999999996 11.142329999999998 C 79.23470999999995 11.145929999999998 79.37465999999996 11.148929999999998 79.51610999999995 11.151029999999997 L 81.62945999999995 11.461529999999996 L 75.75785999999995 12.163679999999996 L 80.99135999999996 12.163679999999996 L 81.88535999999996 12.401579999999996 L 81.83630999999997 12.405179999999996 C 81.62030999999998 12.407729999999995 81.40430999999997 12.407279999999997 81.18830999999997 12.410879999999995 C 81.39155999999997 12.409829999999996 81.59735999999997 12.408329999999996 81.80150999999998 12.407729999999995 L 70.58810999999997 13.184879999999996 C 70.58810999999997 13.184879999999996 78.50210999999997 12.993329999999997 80.60825999999997 13.184879999999996 C 82.71440999999997 13.376429999999996 87.05585999999997 13.271729999999996 87.05585999999997 13.271729999999996 L 87.32390999999997 13.655729999999997 C 86.64065999999997 13.661429999999996 86.06480999999997 13.690979999999996 85.57925999999998 13.818179999999996 C 85.22945999999997 13.911629999999997 83.59715999999997 13.960679999999996 82.56125999999998 13.960679999999996 C 75.76745999999997 13.960679999999996 68.96810999999998 13.951379999999997 62.18720999999998 13.930979999999996 C 57.95960999999998 13.914629999999997 53.73155999999998 13.899779999999996 49.50545999999998 13.885529999999996 C 49.073459999999976 13.936679999999996 48.39650999999998 13.965779999999995 48.83405999999998 14.079629999999996 C 49.06280999999998 14.137829999999996 49.88435999999998 14.123579999999997 50.36945999999998 14.167529999999996 C 52.28570999999998 14.328329999999996 53.742359999999984 14.690879999999996 56.41115999999998 14.540729999999996 C 56.57765999999998 14.529929999999997 56.94365999999998 14.566229999999996 57.04835999999998 14.603129999999997 C 57.89030999999998 14.866679999999997 59.14580999999998 14.787479999999997 60.46715999999998 14.720129999999997 C 62.01170999999998 14.643479999999997 63.61895999999998 14.493329999999997 65.11955999999998 14.730929999999997 C 65.13995999999997 14.738579999999997 65.53880999999998 14.665079999999998 65.78945999999998 14.632379999999998 C 66.47975999999997 14.557829999999997 67.16195999999998 14.467979999999997 67.88495999999998 14.402129999999998 C 68.17595999999998 14.370479999999997 68.78720999999997 14.339729999999998 68.86070999999998 14.354129999999998 C 70.27715999999998 14.705429999999998 71.21810999999998 14.430779999999999 72.66755999999998 14.325029999999998 C 74.33510999999999 14.189129999999999 76.45100999999998 14.229479999999999 78.37430999999998 14.203979999999998 C 78.58820999999998 14.200379999999997 78.91970999999998 14.236679999999998 79.01660999999999 14.266379999999998 C 79.81820999999998 14.530379999999997 80.60000999999998 14.530379999999997 81.62465999999999 14.277179999999998 C 81.84786 14.225579999999997 82.58555999999999 14.236829999999998 83.07216 14.203679999999999 C 84.55026 14.114279999999999 86.09331 14.109179999999999 87.62856 14.091779999999998 L 87.63005999999999 14.094329999999998 L 87.82775999999998 14.088629999999998 C 88.59920999999999 14.078879999999998 89.36210999999999 14.056979999999998 90.11765999999999 14.02428 L 91.86080999999999 13.975679999999999 C 92.35460999999998 13.99518 92.92130999999999 14.045129999999999 93.42215999999999 14.068079999999998 C 92.49950999999999 14.240129999999999 93.44060999999999 14.291729999999998 94.04466 14.324429999999998 C 94.92845999999999 14.369879999999998 95.67351 14.313629999999998 96.29015999999999 14.166629999999998 C 96.47300999999999 14.126279999999998 97.35365999999999 14.146679999999998 97.86995999999999 14.166629999999998 C 98.62925999999999 14.199329999999998 101.38790999999999 14.181029999999998 102.11090999999999 14.068079999999998 C 102.59750999999999 13.998029999999998 102.80841 14.033279999999998 103.22555999999999 14.027729999999998 C 104.74865999999999 14.009279999999999 105.04880999999999 14.236079999999998 105.88880999999999 14.349929999999999 C 107.35116 14.256479999999998 109.19076 14.492429999999999 110.38190999999999 14.21403 C 111.24020999999999 14.018429999999999 111.89016 14.12253 112.57851 14.199629999999999 C 114.56781 14.429879999999999 115.26726 14.429879999999999 117.61895999999999 14.49228 C 118.69685999999999 14.518379999999999 119.56985999999999 14.39013 120.63545999999998 14.46678 C 122.35415999999998 14.58063 123.95930999999999 14.54538 125.30465999999998 14.27073 C 125.73455999999999 14.18088 126.46475999999998 14.19918 126.65360999999999 14.34423 C 126.70820999999998 14.390279999999999 126.75620999999998 14.43003 126.83645999999999 14.47248 C 127.27250999999998 14.67423 128.06436 14.741129999999998 128.96705999999998 14.61348 C 129.63141 14.51433 129.86015999999998 14.36943 131.05895999999998 14.47758 C 131.82741 14.54553 133.33926 14.46678 133.75686 14.55618 C 135.16806 14.86008 136.70195999999999 14.704229999999999 137.87870999999998 14.57058 C 139.52795999999998 14.384129999999999 141.14945999999998 14.22438 142.97375999999997 14.368829999999999 C 144.73985999999996 14.51343 146.64170999999996 14.264579999999999 148.28330999999997 14.445929999999999 C 148.36760999999998 14.456729999999999 148.41350999999997 14.480129999999999 148.44260999999997 14.495429999999999 C 148.78325999999998 14.68953 148.97165999999999 14.57358 149.51690999999997 14.502629999999998 C 150.71780999999996 14.348879999999998 151.03790999999995 14.372879999999999 151.81550999999996 14.630879999999998 C 152.12855999999996 14.740679999999998 152.42675999999997 14.766779999999997 152.68655999999996 14.649329999999997 C 153.21905999999996 14.389379999999997 154.60475999999997 14.301629999999998 155.71220999999997 14.332679999999998 C 156.90755999999996 14.368979999999999 157.82240999999996 14.422529999999998 158.62970999999996 14.220779999999998 C 158.64965999999995 14.213129999999998 159.26075999999995 14.250479999999998 159.26495999999997 14.270279999999998 C 159.38900999999998 14.627279999999997 160.47050999999996 14.678729999999998 162.26255999999998 14.556179999999998 C 162.51126 14.535779999999997 162.92886 14.612879999999997 163.25975999999997 14.612879999999997 C 164.58320999999998 14.590829999999997 166.21190999999996 14.817629999999998 167.12330999999998 14.460629999999997 C 168.20886 14.678729999999996 168.90785999999997 14.389079999999996 169.78850999999997 14.392679999999997 C 170.29145999999997 14.400329999999997 170.77490999999998 14.425379999999997 171.26570999999998 14.436629999999997 C 171.33365999999998 14.457029999999998 171.39951 14.480579999999998 171.47811 14.513279999999998 C 171.50780999999998 14.524079999999998 171.54966 14.535329999999998 171.58580999999998 14.539379999999998 C 171.98300999999998 14.389229999999998 172.52120999999997 14.707379999999997 172.93535999999997 14.517329999999998 C 172.97375999999997 14.495279999999998 173.32911 14.513279999999998 173.53580999999997 14.513279999999998 C 173.48975999999996 14.544929999999999 173.48975999999996 14.584829999999998 173.40200999999996 14.601629999999998 C 172.88930999999997 14.689529999999998 173.16560999999996 14.780879999999998 173.41640999999996 14.853929999999998 C 173.77340999999996 14.967779999999998 173.88725999999997 14.806379999999999 174.14510999999996 14.813579999999998 C 174.34325999999996 14.813579999999998 174.53165999999996 14.843279999999998 174.72365999999997 14.853929999999998 C 175.04795999999996 14.746229999999999 175.37210999999996 14.757329999999998 175.69385999999997 14.859629999999997 C 176.23715999999996 14.905679999999997 176.78090999999998 15.004229999999998 177.32615999999996 14.865329999999997 L 177.32825999999997 14.865329999999997 C 178.51595999999998 14.859629999999997 179.71115999999998 14.850929999999996 180.89675999999997 14.843279999999996 C 181.08920999999998 14.839679999999996 181.28540999999998 14.832479999999997 181.47725999999997 14.824829999999997 C 181.34345999999996 14.859629999999997 181.21025999999998 14.891279999999997 181.08200999999997 14.927429999999998 C 180.99770999999996 14.949479999999998 180.92975999999996 14.967779999999998 180.85325999999998 14.987729999999997 C 180.95390999999998 14.993429999999996 181.07495999999998 15.007679999999997 181.16120999999998 15.004079999999997 C 181.42310999999998 14.978579999999997 181.84745999999998 14.958029999999997 181.90055999999998 14.916179999999997 C 182.02310999999997 14.802329999999998 182.27375999999998 14.771579999999997 182.71146 14.791529999999996 C 183.22565999999998 14.813579999999996 183.74240999999998 14.839529999999996 184.25286 14.865029999999996 C 184.50921 14.978879999999995 184.96311 14.930879999999995 185.34351 14.919629999999996 C 185.63256 14.908829999999996 185.91291 14.884829999999996 186.20031 14.859329999999996 C 186.07971 14.831729999999997 185.94951 14.806229999999996 185.82711 14.777129999999996 C 185.98701 14.757179999999996 186.14571 14.725529999999996 186.31071 14.725529999999996 C 186.72591 14.714729999999996 187.16541 14.707079999999996 187.56786 14.729129999999996 C 187.70166 14.736779999999996 187.78026 14.806229999999996 187.87731 14.853779999999997 C 188.21180999999999 14.842979999999997 188.55635999999998 14.831729999999997 188.90061 14.813429999999997 C 189.75336 14.771579999999997 190.09941 14.813429999999997 190.50891000000001 15.003929999999997 C 190.83876 14.983979999999997 191.17521000000002 14.963579999999997 191.50461 14.941529999999997 L 191.50821000000002 14.937929999999996 C 191.66601000000003 14.963429999999995 191.81916 14.998229999999996 191.96781000000001 14.998229999999996 C 192.97416 14.983829999999996 193.99386 14.926679999999996 194.97666 14.941529999999997 C 196.88571000000002 14.978279999999996 198.70551 14.817479999999996 200.58996000000002 14.853629999999997 C 200.74221000000003 14.853629999999997 200.90496000000002 14.831579999999997 201.05661 14.823929999999997 C 202.03596000000002 14.736029999999998 203.04591 14.717729999999998 204.08796 14.714129999999997 C 204.84066 14.706479999999997 205.58346 14.668079999999998 206.33916000000002 14.648279999999998 C 207.19191 14.622779999999999 208.06896000000003 14.563979999999997 208.90491000000003 14.583929999999999 C 210.05271000000002 14.61558 211.12851000000003 14.549729999999998 212.23086000000004 14.534429999999999 C 212.36976000000004 14.534429999999999 212.50716000000003 14.538479999999998 212.64801000000003 14.544179999999999 C 216.33036000000004 14.33733 221.25891000000001 14.249579999999998 226.64556000000002 14.67798 C 237.86856000000003 15.57873 240.70746000000003 13.60368 245.46591 13.78443 C 250.22601 13.96413 255.89496 13.77363 255.89496 13.77363 L 260.99571 13.77363 L 261.90711 13.33803 L 264.85011 13.33803 C 264.85011 13.33803 266.66630999999995 13.24608 267.34475999999995 13.33803 C 268.02741 13.42788 274.60565999999994 13.29768 274.60565999999994 13.29768 C 274.60565999999994 13.29768 278.46005999999994 13.70778 278.90885999999995 13.29768 C 279.3627599999999 12.88968 286.39235999999994 11.72718 286.7330099999999 11.72718 C 287.0715599999999 11.72718 293.4210599999999 12.088230000000001 293.8764599999999 12.088230000000001 C 294.33035999999987 12.088230000000001 298.9751099999999 11.778780000000001 298.9751099999999 11.778780000000001 C 299.0706599999999 11.70213 299.1732599999999 11.62503 299.2881599999999 11.54643 C 299.3285099999999 11.52288 299.4285599999999 11.50458 299.5020599999999 11.478480000000001 C 298.6728599999999 11.36508 299.1435599999999 11.23188 299.37380999999993 11.098080000000001 C 299.6429099999999 10.94583 299.91245999999995 10.793730000000002 299.25530999999995 10.640580000000002 C 299.16185999999993 10.620630000000002 299.17310999999995 10.527180000000001 299.26805999999993 10.512330000000002 C 300.3147599999999 10.358580000000002 299.46770999999995 10.015980000000003 300.5675099999999 9.867930000000003 C 300.5768099999999 9.567630000000003 300.7283099999999 9.261780000000003 300.5471099999999 8.970780000000003 C 300.4394099999999 8.791530000000003 301.10930999999994 8.666880000000003 300.8678099999999 8.491830000000004 C 300.8070599999999 8.449380000000003 300.9444599999999 8.368230000000004 301.1144099999999 8.331930000000003 C 301.8297599999999 8.176230000000004 301.6965599999999 7.943280000000003 302.1284099999999 7.758480000000003 C 302.2050599999999 7.726830000000003 301.8021599999999 7.628280000000003 302.2106099999999 7.567980000000003 C 302.02775999999994 7.525530000000003 301.8807599999999 7.462830000000003 301.6520099999999 7.437180000000003 C 300.9969599999999 7.355430000000003 300.3965099999999 7.250280000000004 299.5800599999999 7.235430000000004 C 299.29415999999986 7.231830000000004 299.0148599999999 7.214430000000004 298.73300999999987 7.192980000000004 C 300.01610999999986 7.189380000000004 301.30070999999987 7.192980000000004 302.55215999999984 7.105080000000004 C 302.65835999999985 7.100430000000004 303.15110999999985 7.182780000000004 303.18170999999984 7.231680000000003 C 303.34670999999986 7.529430000000003 304.47200999999984 7.405380000000004 305.3946599999998 7.370130000000003 C 305.7332099999998 7.348680000000003 306.0278099999998 7.306830000000003 306.3500099999998 7.282230000000003 C 305.95685999999984 7.269930000000003 305.5416599999998 7.2633300000000025 305.1956099999998 7.237830000000002 z M 186.35854 1.09653 C 186.35854 1.09653 186.38059 1.08888 186.43054 1.08018 L 186.46684000000002 1.0867799999999999 z M 197.27059 1.17213 L 197.18269 1.1572799999999999 L 197.28124 1.14648 z M 199.30024 1.71033 C 199.23439 1.71033 199.16794000000002 1.70928 199.10254 1.70973 C 199.20169 1.67958 199.31194 1.63968 199.41304 1.6147799999999999 z M 200.81764 1.16298 L 200.87644 1.1466299999999998 L 200.91124 1.1680799999999998 z M 37.29916 8.30463 L 37.30741 8.30358 L 37.312509999999996 8.30418 C 37.30786 8.30418 37.30381 8.30418 37.29915999999999 8.304780000000001 z M 67.05001 9.96618 L 67.56826 9.911579999999999 L 68.73901 10.00203 C 68.20186 9.99438 67.62391 9.981029999999999 67.05000999999999 9.96618 z M 68.75326 10.00143 L 70.13790999999999 10.00143 C 69.74325999999999 10.00968 69.26790999999999 10.008629999999998 68.75326 10.00143 z M 134.28693 10.95978 L 134.28948000000003 10.95978 C 134.52033000000003 10.96038 134.75103000000001 10.96083 134.98188000000002 10.96128 C 134.98758 10.944930000000001 135.00033000000002 10.92498 135.00393000000003 10.90968 C 134.96658000000002 10.90968 134.92938000000004 10.90908 134.89263000000003 10.90908 L 135.30828000000002 10.87488 L 136.73328000000004 10.50423 C 136.84263000000004 10.49958 136.95843000000005 10.49598 137.06463000000002 10.490879999999999 C 137.61408000000003 10.496579999999998 137.45478000000003 10.569479999999999 137.53188000000003 10.619129999999998 C 137.76978000000003 10.619129999999998 137.97108000000003 10.615079999999999 138.18348000000003 10.615079999999999 C 138.12888000000004 10.62483 138.07158000000004 10.639079999999998 138.02418000000003 10.64988 C 138.15798000000004 10.66068 138.34083000000004 10.69788 138.42648000000003 10.69383 C 138.48363000000003 10.685130000000001 138.53583000000003 10.67688 138.59043000000003 10.668330000000001 L 139.23333000000002 10.874580000000002 L 139.42893000000004 10.877130000000001 L 139.59138000000004 11.034930000000001 C 138.98733000000004 11.20353 137.72313000000005 11.219280000000001 136.39923000000005 11.210130000000001 C 134.64438000000004 11.202930000000002 132.89208000000005 11.195280000000002 131.13768000000005 11.188080000000001 z M 129.10548 11.33613 C 131.67573 11.345880000000001 134.24703 11.355030000000001 136.81773 11.364780000000001 C 137.44878 11.458230000000002 138.82893 11.40468 140.06808 11.375580000000001 C 142.49178 11.386830000000002 144.91098 11.39703 147.33108000000001 11.40783 L 148.41768000000002 11.76228 C 146.31513 11.75298 144.21348 11.74338 142.10898000000003 11.73258 C 141.81438000000003 11.69373 141.56523000000004 11.65398 140.78193000000002 11.66463 L 140.77833 11.73258 C 139.38183 11.72283 137.98188000000002 11.71563 136.58343000000002 11.71218 C 137.47998 11.62428 136.46238000000002 11.58048 136.05798000000001 11.51043 C 135.00003 11.514479999999999 134.81313 11.65908 135.52548000000002 11.71218 C 134.58393 11.70453 133.64148000000003 11.70138 132.69843000000003 11.69688 C 131.27793000000003 11.63193 129.54198000000002 11.54568 127.68453000000002 11.43948 z M 103.20137 13.76193 C 102.73772 13.76043 102.27571999999999 13.755329999999999 101.81251999999999 13.75323 L 105.50147 13.765080000000001 C 104.73512 13.763580000000001 103.96772 13.764030000000002 103.20121999999999 13.761930000000001 z M 135.12318 13.73643 C 134.44413 13.75638 133.75938 13.80588 133.08798 13.80588 C 124.67867999999999 13.79613 116.25932999999999 13.78638 107.84597999999998 13.76913 C 107.77082999999999 13.752180000000001 107.45732999999998 13.681230000000001 107.01362999999998 13.58073 C 107.95157999999998 13.57863 108.91457999999997 13.57713 109.90712999999998 13.57563 C 109.45877999999998 13.41933 107.85257999999997 13.47198 106.53677999999998 13.47138 C 106.47287999999998 13.45698 106.40807999999998 13.44168 106.34117999999998 13.42698 C 106.37177999999999 13.42698 106.40297999999999 13.42758 106.43312999999998 13.42758 C 108.36767999999998 13.441980000000001 110.30942999999998 13.451130000000001 112.24967999999998 13.461780000000001 C 112.22057999999998 13.49853 112.09397999999999 13.52058 111.80492999999998 13.52613 C 112.23332999999998 13.56453 113.20337999999998 13.52973 114.64022999999999 13.56093 C 114.72603 13.52613 114.67293 13.49853 114.59777999999999 13.48023 C 114.87453 13.483830000000001 115.16147999999998 13.483830000000001 115.44887999999999 13.48788 C 115.48367999999999 13.49868 115.42848 13.50993 115.12097999999999 13.52058 C 115.34057999999999 13.602780000000001 116.12028 13.555380000000001 116.46077999999999 13.494480000000001 C 118.03127999999998 13.49853 119.60897999999999 13.50933 121.18112999999998 13.52058 C 121.55087999999998 13.54053 122.12567999999999 13.54053 122.71292999999999 13.52988 C 123.79997999999999 13.52988 124.87982999999998 13.54068 125.96537999999998 13.54623 C 128.47127999999998 13.561079999999999 130.96398 13.57593 133.46943 13.59423 C 134.03313 13.59783 134.58048 13.634129999999999 135.13338 13.64883 C 135.12828 13.68198 135.12828 13.70703 135.12318 13.73673 z M 132.84453 13.29723 C 125.59487999999999 13.30293 118.34357999999999 13.31358 111.10817999999999 13.28283 C 109.25372999999999 13.27308 107.40288 13.256730000000001 105.55053 13.244430000000001 C 105.07007999999999 13.132530000000001 104.57073 13.01613 104.10857999999999 12.90543 C 104.70962999999999 12.91308 105.31262999999998 12.918180000000001 105.91967999999999 12.92028 C 114.80372999999999 12.94233 123.67652999999999 12.97848 132.55698999999998 13.00818 C 132.63003999999998 13.00818 132.71629 13.00248 132.77088999999998 13.00818 C 133.59798999999998 13.05618 134.42523999999997 13.096079999999999 135.25638999999998 13.144079999999999 C 134.44908999999998 13.20033 133.63114 13.297229999999999 132.84438999999998 13.297229999999999 z M 135.90288 12.57933 C 135.07218 12.60903 134.18778 12.614130000000001 133.33668 12.60903 C 128.03838 12.584430000000001 122.74218 12.555330000000001 117.44493 12.52683 L 118.34058 12.33228 C 119.66868000000001 12.33948 120.40998 12.362430000000002 121.08138 12.274080000000001 C 121.24998 12.274080000000001 121.41273 12.274080000000001 121.58478 12.274080000000001 C 121.65633 12.308880000000002 121.73492999999999 12.342030000000001 123.23553 12.308880000000002 C 123.19158 12.299580000000002 123.12362999999999 12.288930000000002 123.06693 12.279180000000002 C 126.27138 12.293580000000002 129.47823 12.308880000000002 132.67758 12.319530000000002 C 133.74828 12.326730000000001 134.84508 12.319530000000002 135.89523 12.341580000000002 C 136.27563 12.352380000000002 136.57428 12.413130000000002 136.91643 12.455430000000002 C 136.59273 12.495330000000001 136.29048 12.568830000000002 135.90287999999998 12.579480000000002 z M 143.13003 12.07803 C 143.45988 12.10773 143.58033 12.16023 143.57478 12.22818 C 143.51238 12.22818 143.45373 12.22818 143.38788 12.22818 C 142.99983 12.22818 142.60608 12.22098 142.21308 12.22098 C 141.50643 12.19128 141.09287999999998 12.15093 140.52918 12.216930000000001 C 140.32233 12.216930000000001 140.11353 12.216930000000001 139.90878 12.216930000000001 C 139.67793 12.191430000000002 139.49163000000001 12.165780000000002 139.33428 12.129030000000002 C 138.03843 12.097830000000002 136.68033 12.165780000000002 135.45228 12.205680000000003 C 134.57208 12.205680000000003 133.68978 12.205680000000003 132.80943 12.202080000000002 C 132.77673 12.194430000000002 132.73593 12.194430000000002 132.71088 12.194430000000002 C 132.69813 12.194430000000002 132.69813 12.194430000000002 132.69048 12.202080000000002 C 129.15063 12.191280000000003 125.61633 12.185730000000003 122.07663000000001 12.174480000000003 C 121.44753000000001 12.135630000000003 120.57393 12.108630000000003 119.38848000000002 12.103530000000003 L 120.72423000000002 11.812980000000003 C 121.97268000000003 11.816580000000004 123.23688000000001 11.819580000000004 124.46478000000002 11.822730000000004 C 124.51488000000002 11.855880000000003 124.57563000000002 11.891130000000004 124.67568000000001 11.927430000000003 C 124.94778000000001 11.880480000000002 125.58813000000002 11.855880000000003 125.84133000000001 11.825730000000004 C 126.12783000000002 11.826330000000004 126.40968000000001 11.827230000000004 126.68793000000001 11.827830000000004 C 126.85593000000001 11.838630000000004 127.09278 11.841180000000005 127.48653 11.829330000000004 C 129.44163 11.833980000000004 131.11683 11.837580000000004 132.20688 11.840130000000004 C 133.30563 11.845830000000003 134.40498000000002 11.849430000000003 135.50373000000002 11.856030000000004 C 139.99788 11.874930000000004 144.48588 11.907180000000004 148.97283000000002 11.942280000000004 L 149.75043000000002 12.196080000000004 C 147.84498000000002 12.172530000000004 145.92723 12.117930000000003 143.13018000000002 12.078030000000004 z M 176.53563 14.83053 L 176.46108 14.82288 L 176.55453 14.81568 z M 178.66413 14.77593 C 178.59108 14.77593 178.52373 14.755980000000001 178.45023 14.74473 C 178.49208000000002 14.73858 178.53453000000002 14.71668 178.57083 14.71668 C 178.66428 14.72433 178.75773 14.73873 178.85988 14.74473 C 178.78683 14.755980000000001 178.71948 14.77593 178.66428 14.77593 z M 184.38214 14.85813 C 184.35814 14.85813 184.33774 14.85813 184.30864 14.85813 C 184.42924 14.83818 184.55524 14.823329999999999 184.68349 14.80143 C 184.69429 14.80143 184.75144 14.816279999999999 184.78204 14.82753 C 184.64929 14.83833 184.51399 14.84958 184.38228999999998 14.85813 z M 189.08194 14.71728 C 188.94604 14.70288 188.80924000000002 14.688180000000001 188.66989 14.677380000000001 C 188.87674 14.66763 189.08194 14.65698 189.29239 14.65698 C 189.43489000000002 14.65698 189.57274 14.67183 189.70954 14.68308 C 189.51034 14.69178 189.30919 14.70603 189.08194 14.71728 z M 190.46764 14.70303 C 190.42924 14.69223 190.39099 14.67753 190.35574 14.66823 C 190.43794 14.66823 190.53544 14.65743 190.62439 14.65743 C 190.65919 14.65743 190.69234 14.672279999999999 190.72504 14.67783 C 190.63969 14.68803 190.56109 14.697330000000001 190.46764000000002 14.70288 z M 217.00654 1.90683 L 216.92029 1.89603 L 217.02649 1.89243 z" stroke-linecap="round" />
</g>
</svg>