<?xml version="1.0" encoding="UTF-8" standalone="no" ?>
<!DOCTYPE svg PUBLIC "-//W3C//DTD SVG 1.1//EN" "http://www.w3.org/Graphics/SVG/1.1/DTD/svg11.dtd">
<svg xmlns="http://www.w3.org/2000/svg" xmlns:xlink="http://www.w3.org/1999/xlink" version="1.1" width="1782" height="1003" viewBox="0 0 1782 1003" xml:space="preserve">
<desc>Created with Fabric.js 4.6.0</desc>
<defs>
</defs>
<g transform="matrix(2.97 0 0 2.97 890.87 501.56)" id="ta2GtueT2WW2NqT-7qj-Z"  >
<path style="stroke: none; stroke-width: 1; stroke-dasharray: none; stroke-linecap: butt; stroke-dashoffset: 0; stroke-linejoin: miter; stroke-miterlimit: 4; fill: rgb(0,0,0); fill-opacity: 0.05; fill-rule: nonzero; opacity: 1;" vector-effect="non-scaling-stroke"  transform=" translate(0, 0)" d="M -69.33621 44.527 L -85.56720999999999 44.527 L -107.68520999999998 18.767 C -108.09820999999998 18.285999999999998 -108.70120999999999 18.008 -109.33620999999998 18.008 L -117.81620999999998 18.008 C -118.30720999999998 18.008 -118.75620999999998 18.177 -119.12020999999999 18.451 C -119.77120999999998 18.525000000000002 -120.28320999999998 19.058 -120.28320999999998 19.728 L -120.28320999999998 38.355000000000004 L -128.84721 38.355000000000004 C -129.56821 38.355000000000004 -130.15321 38.940000000000005 -130.15321 39.661 L -130.15321 43.58 L -137.41021 43.58 L -137.41021 33.275999999999996 C -137.41021 32.555 -137.99521000000001 31.969999999999995 -138.71621000000002 31.969999999999995 L -146.50821000000002 31.969999999999995 L -144.09321000000003 22.611999999999995 C -143.91421000000003 21.913999999999994 -144.09021000000004 21.172999999999995 -144.56521000000004 20.630999999999993 L -153.58621000000005 10.356999999999994 L -141.58121000000006 10.356999999999994 C -141.16521000000006 10.356999999999994 -140.77321000000006 10.158999999999994 -140.52721000000005 9.822999999999993 L -133.05621000000005 -0.3700000000000063 C -132.73321000000004 -0.8110000000000064 -132.73021000000006 -1.3850000000000062 -132.99921000000006 -1.8240000000000063 C -132.90121000000005 -2.484000000000006 -133.10021000000006 -3.1800000000000064 -133.61021000000005 -3.6880000000000064 L -156.86521000000005 -26.846000000000007 L -150.96721000000005 -26.846000000000007 C -150.50621000000004 -26.846000000000007 -150.05721000000005 -26.992000000000008 -149.68521000000004 -27.264000000000006 L -139.22621000000004 -34.88600000000001 C -138.52021000000005 -35.40100000000001 -138.19021000000004 -36.28700000000001 -138.38721000000004 -37.13700000000001 L -139.73721000000003 -42.96300000000001 L -120.86121000000003 -58.48700000000001 C -120.35821000000003 -58.90100000000001 -120.06721000000003 -59.51800000000001 -120.06721000000003 -60.16900000000001 L -120.06721000000003 -64.50600000000001 L -94.07421000000004 -64.50600000000001 C -93.17321000000004 -64.50600000000001 -92.36521000000003 -65.06100000000002 -92.04121000000004 -65.90200000000002 C -91.71821000000004 -66.74300000000001 -91.94721000000004 -67.69600000000001 -92.61521000000003 -68.29900000000002 L -119.47821000000003 -92.53600000000002 C -119.80821000000003 -92.83400000000002 -120.22021000000004 -93.02300000000001 -120.66121000000004 -93.07900000000002 L -129.46121000000005 -94.20100000000002 L -137.78221000000005 -101.55000000000003 C -138.21621000000005 -101.93200000000003 -138.77721000000005 -102.12800000000003 -139.36221000000006 -102.09100000000002 C -139.93921000000006 -102.05400000000002 -140.47821000000008 -101.78900000000002 -140.86021000000005 -101.35400000000003 L -146.78021000000004 -94.60700000000003 C -147.17421000000004 -94.15900000000003 -147.36621000000005 -93.56900000000003 -147.31221000000005 -92.97500000000002 C -147.25821000000005 -92.38100000000003 -146.96321000000006 -91.83500000000002 -146.49521000000004 -91.46500000000002 L -139.40021000000004 -85.84600000000002 L -149.44321000000005 -75.44600000000001 L -159.11221000000006 -78.80300000000001 L -171.54721000000006 -92.07400000000001 L -159.77321000000006 -105.19000000000001 C -159.02821000000006 -106.019 -159.03121000000007 -107.27700000000002 -159.77821000000006 -108.10400000000001 L -171.27821000000006 -120.82600000000001 C -171.68321000000006 -121.274 -172.25621000000007 -121.534 -172.86121000000006 -121.543 C -173.43721000000005 -121.58000000000001 -174.04621000000006 -121.31 -174.46421000000007 -120.87400000000001 L -180.57321000000007 -114.51 L -195.62321000000009 -118.003 C -196.80121000000008 -118.279 -197.9642100000001 -117.546 -198.23621000000009 -116.375 C -198.50721000000007 -115.204 -197.7782100000001 -114.034 -196.6072100000001 -113.762 L -180.3522100000001 -109.988 C -179.60521000000008 -109.813 -178.8212100000001 -110.047 -178.2892100000001 -110.601 L -172.9412100000001 -116.172 L -164.3242100000001 -106.63799999999999 L -176.1222100000001 -93.49499999999999 C -176.8762100000001 -92.654 -176.86321000000012 -91.377 -176.0912100000001 -90.55199999999999 L -161.9222100000001 -75.43199999999999 C -161.68121000000008 -75.17499999999998 -161.3812100000001 -74.97999999999999 -161.0482100000001 -74.86399999999999 L -149.5582100000001 -70.874 C -148.75921000000008 -70.598 -147.8682100000001 -70.80799999999999 -147.27721000000008 -71.41799999999999 L -145.16421000000008 -73.606 L -133.01821000000007 -73.606 L -133.01821000000007 -54.163999999999994 C -133.01821000000007 -54.150999999999996 -133.01121000000006 -54.14099999999999 -133.01121000000006 -54.129 L -134.35521000000006 -53.024 L -162.81321000000005 -53.024 L -175.22121000000004 -64.48 C -175.46321000000003 -64.703 -175.77921000000003 -64.82600000000001 -176.10721000000004 -64.82600000000001 L -222.49221000000003 -64.82600000000001 C -222.52621000000002 -64.87100000000001 -222.55121000000003 -64.921 -222.58921000000004 -64.96400000000001 L -247.06121000000005 -92.57500000000002 L -247.06121000000005 -115.23400000000001 C -247.06121000000005 -115.956 -247.64621000000005 -116.54 -248.36721000000006 -116.54 C -249.08821000000006 -116.54 -249.67321000000007 -115.95500000000001 -249.67321000000007 -115.23400000000001 L -249.67321000000007 -94.64200000000001 C -249.74721000000008 -94.65 -249.81921000000006 -94.665 -249.89321000000007 -94.665 L -267.67021000000005 -94.665 C -268.07621000000006 -94.665 -268.47421 -94.551 -268.82021000000003 -94.337 L -279.63521000000003 -87.614 L -295.38521000000003 -101.287 L -295.38521000000003 -114.111 L -279.89021 -120.932 L -254.25021000000004 -120.932 C -253.04821000000004 -120.932 -252.07321000000005 -121.907 -252.07321000000005 -123.10900000000001 C -252.07321000000005 -124.311 -253.04821000000004 -125.28600000000002 -254.25021000000004 -125.28600000000002 L -280.34821000000005 -125.28600000000002 C -280.6502100000001 -125.28600000000002 -280.9482100000001 -125.22300000000001 -281.22621000000004 -125.10100000000001 L -298.43921000000006 -117.52300000000001 C -299.2292100000001 -117.17500000000001 -299.73921000000007 -116.394 -299.73921000000007 -115.53000000000002 L -299.73921000000007 -100.29300000000002 C -299.73921000000007 -99.66200000000002 -299.46521000000007 -99.06200000000003 -298.98921000000007 -98.64900000000002 L -281.2772100000001 -83.27200000000002 C -280.55721000000005 -82.64700000000002 -279.5142100000001 -82.56100000000002 -278.7002100000001 -83.06700000000002 L -267.0492100000001 -90.31000000000002 L -250.87421000000006 -90.31000000000002 L -226.54421000000008 -62.860000000000014 L -229.63921000000008 -45.13000000000001 C -229.75821000000008 -44.44800000000001 -229.54521000000008 -43.74900000000001 -229.06621000000007 -43.24900000000001 L -214.58221000000006 -28.146000000000008 C -214.17121000000006 -27.718000000000007 -213.60421000000005 -27.476000000000006 -213.01021000000006 -27.476000000000006 L -206.15321000000006 -27.476000000000006 L -191.22021000000007 -9.362000000000005 L -195.11721000000006 -3.1710000000000056 C -195.66621000000006 -2.2990000000000057 -195.52921000000006 -1.1620000000000057 -194.78921000000005 -0.4460000000000055 L -183.84521000000007 10.135999999999996 C -183.43921000000006 10.528999999999996 -182.89621000000005 10.747999999999996 -182.33121000000006 10.747999999999996 L -159.03821000000005 10.747999999999996 L -148.59821000000005 22.638999999999996 L -153.57721000000006 41.931999999999995 C -153.75921000000005 42.638999999999996 -153.57521000000006 43.388999999999996 -153.08921000000007 43.931 L -123.89821000000006 76.428 L -149.64221000000006 165.79 C -149.83221000000006 166.447 -149.70121000000006 167.156 -149.28921000000005 167.702 C -148.87821000000005 168.249 -148.23421000000005 168.57 -147.55021000000005 168.57 L -124.22221000000005 168.57 C -123.01921000000004 168.57 -122.04521000000004 167.595 -122.04521000000004 166.393 C -122.04521000000004 165.191 -123.02021000000003 164.216 -124.22221000000005 164.216 L -144.65721000000005 164.216 L -119.38021000000005 76.474 C -119.17321000000005 75.75200000000001 -119.35121000000005 74.97500000000001 -119.85321000000005 74.416 L -127.55421000000004 65.84299999999999 C -127.55321000000004 65.823 -127.54221000000004 65.80599999999998 -127.54221000000004 65.78599999999999 L -127.54221000000004 58.383999999999986 L -110.99721000000004 58.383999999999986 L -110.99721000000004 96.55399999999999 C -110.99721000000004 97.27499999999999 -110.41221000000004 97.85999999999999 -109.69121000000004 97.85999999999999 L -87.51421000000005 97.85999999999999 L -107.14021000000005 142.661 C -107.62221000000005 143.762 -107.12121000000005 145.046 -106.01921000000006 145.529 C -105.73521000000005 145.653 -105.43821000000005 145.713 -105.14621000000005 145.713 C -104.30821000000006 145.713 -103.50921000000005 145.226 -103.15121000000005 144.408 L -67.34221000000005 62.66699999999999 C -67.22121000000006 62.390999999999984 -67.15921000000004 62.094999999999985 -67.15921000000004 61.79399999999999 L -67.15921000000004 46.70299999999999 C -67.15921000000004 45.50199999999999 -68.13421000000004 44.52699999999999 -69.33621000000005 44.52699999999999 z M -131.71421 -76.217 L -142.64421000000002 -76.217 L -134.60121 -84.545 C -134.17521000000002 -84.987 -133.95521000000002 -85.589 -133.99521000000001 -86.202 C -134.03621 -86.815 -134.33421 -87.382 -134.81621 -87.764 L -141.99921 -93.452 L -139.02921 -96.836 L -131.84321 -90.489 C -131.51621 -90.2 -131.11021 -90.01700000000001 -130.67721 -89.961 L -121.88921 -88.841 L -99.73721 -68.854 L -122.24421000000001 -68.854 C -123.44621000000001 -68.854 -124.42121000000002 -67.879 -124.42121000000002 -66.67699999999999 L -124.42121000000002 -61.19199999999999 L -130.40821000000003 -56.267999999999994 L -130.40821000000003 -74.90899999999999 C -130.40821000000003 -75.633 -130.99321000000003 -76.217 -131.71421000000004 -76.217 z M -225.15921 -45.466 L -222.23621 -62.211 L -176.62121 -62.211 L -164.21321 -50.754999999999995 C -163.97221 -50.532 -163.65521 -50.407999999999994 -163.32721 -50.407999999999994 L -137.53521 -50.407999999999994 L -143.54821 -45.462999999999994 C -144.18721000000002 -44.937999999999995 -144.47321000000002 -44.096 -144.28621 -43.28999999999999 L -142.95521000000002 -37.55199999999999 L -151.67821000000004 -31.19599999999999 L -162.13821000000004 -31.19599999999999 C -163.01921000000004 -31.19599999999999 -163.81421000000003 -30.664999999999992 -164.15021000000004 -29.84999999999999 C -164.48721000000003 -29.03599999999999 -164.29921000000004 -28.09899999999999 -163.67421000000004 -27.47699999999999 L -157.13721000000004 -20.96799999999999 L -177.28421000000003 -20.96799999999999 L -184.99021000000002 -30.47399999999999 C -185.23821 -30.77999999999999 -185.61121000000003 -30.95699999999999 -186.00521 -30.95699999999999 L -203.38121 -30.95699999999999 L -203.44621 -31.03599999999999 C -203.85921000000002 -31.53799999999999 -204.47621 -31.827999999999992 -205.12621000000001 -31.827999999999992 L -212.08021000000002 -31.827999999999992 z M -181.45021 6.395 L -190.49021 -2.346 L -186.69620999999998 -8.373000000000001 C -186.19520999999997 -9.167000000000002 -186.26120999999998 -10.193000000000001 -186.85820999999999 -10.917000000000002 L -201.22720999999999 -28.346 L -186.62520999999998 -28.346 L -178.91921 -18.84 C -178.67220999999998 -18.534 -178.29820999999998 -18.357 -177.90421 -18.357 L -154.51121 -18.357 L -136.68021000000002 -0.6009999999999991 C -136.57121 -0.4929999999999991 -136.45421000000002 -0.3989999999999991 -136.33021000000002 -0.3189999999999991 L -142.24121000000002 7.746 L -155.88021000000003 7.746 L -156.41621000000004 7.135000000000001 C -156.82921000000005 6.664000000000001 -157.42521000000002 6.394000000000001 -158.05221000000003 6.394000000000001 L -181.45021000000003 6.394000000000001 z M -149.06921 41.891 L -147.18321 34.583999999999996 L -140.02321 34.583999999999996 L -140.02321 44.888 C -140.02321 45.608999999999995 -139.43821 46.193999999999996 -138.71721 46.193999999999996 L -130.15421 46.193999999999996 L -130.15421 62.949 z M -71.51321 61.34 L -86.36821 95.25 L -108.38321 95.25 L -108.38321 57.079 C -108.38321 56.358000000000004 -108.96821 55.773 -109.68921 55.773 L -127.54121 55.773 L -127.54121 40.969 L -118.97721000000001 40.969 C -118.25621000000001 40.969 -117.67121000000002 40.384 -117.67121000000002 39.663000000000004 L -117.67121000000002 22.363000000000003 L -110.33621000000002 22.363000000000003 L -88.21821000000003 48.123000000000005 C -87.80521000000003 48.604000000000006 -87.20221000000002 48.882000000000005 -86.56721000000003 48.882000000000005 L -71.51321000000003 48.882000000000005 z M -43.83521 -143.717 L -30.022209999999994 -156.09300000000002 C -29.419209999999993 -156.633 -29.166209999999992 -157.46300000000002 -29.364209999999993 -158.24800000000002 C -29.563209999999994 -159.03300000000002 -30.18020999999999 -159.64300000000003 -30.967209999999994 -159.83100000000002 L -67.18221 -168.51000000000002 C -67.34921 -168.55 -67.51921 -168.57000000000002 -67.69021 -168.57000000000002 L -95.63121 -168.57000000000002 C -95.98921 -168.57000000000002 -96.34120999999999 -168.48200000000003 -96.65720999999999 -168.31300000000002 L -133.14721 -148.81400000000002 C -133.85521 -148.43500000000003 -134.29821 -147.69700000000003 -134.29821 -146.89400000000003 L -134.29821 -139.98200000000003 C -134.29821 -138.77900000000002 -133.32421000000002 -137.80500000000004 -132.12121000000002 -137.80500000000004 L -112.87021000000001 -137.80500000000004 L -102.04121 -125.83000000000004 L -113.08421000000001 -118.42600000000004 C -113.59821000000001 -118.08100000000005 -113.94221000000002 -117.53400000000005 -114.02821000000002 -116.92000000000004 C -114.11421000000001 -116.30700000000004 -113.93521000000001 -115.68600000000005 -113.53521000000002 -115.21300000000005 L -93.52521000000002 -91.52900000000005 C -93.11221000000002 -91.03900000000006 -92.50421000000001 -90.75700000000005 -91.86221000000002 -90.75700000000005 L -84.87221000000002 -90.75700000000005 C -84.00121000000003 -90.75700000000005 -83.21421000000002 -91.27600000000005 -82.87121000000002 -92.07700000000004 L -77.00521000000002 -105.77400000000004 L -66.14021000000002 -105.77400000000004 C -65.61121000000003 -105.77400000000004 -65.10021000000002 -105.96700000000004 -64.70321000000003 -106.31600000000005 L -44.57421000000002 -124.00900000000004 C -44.10421000000002 -124.42200000000004 -43.83421000000002 -125.01800000000004 -43.83421000000002 -125.64400000000005 L -43.83421000000002 -143.71700000000004 z M -47.46521 -146.311 C -47.92621 -145.898 -48.189209999999996 -145.30800000000002 -48.189209999999996 -144.69 L -48.189209999999996 -126.62899999999999 L -66.96221 -110.12899999999999 L -78.44221 -110.12899999999999 C -79.31321 -110.12899999999999 -80.10021 -109.60999999999999 -80.44321000000001 -108.809 L -86.30921000000001 -95.112 L -90.85221000000001 -95.112 L -108.63921000000002 -116.16499999999999 L -97.52621000000002 -123.615 C -97.00021000000002 -123.967 -96.65421000000002 -124.53 -96.57721000000002 -125.157 C -96.50021000000002 -125.785 -96.69921000000002 -126.414 -97.12321000000003 -126.883 L -110.28821000000002 -141.442 C -110.70121000000002 -141.898 -111.28721000000002 -142.15900000000002 -111.90321000000002 -142.15900000000002 L -129.94421000000003 -142.15900000000002 L -129.94421000000003 -145.58900000000003 L -95.08621000000002 -164.21600000000004 L -67.94721000000003 -164.21600000000004 L -36.02021000000003 -156.56500000000003 z M 76.17279 22.577 L 62.15979000000001 22.577 L 27.595790000000008 -16.563 C 27.182790000000008 -17.031 26.58779000000001 -17.299 25.963790000000007 -17.299 L 15.953790000000007 -17.299 L 6.740790000000008 -25.601 C 6.339790000000008 -25.961 5.821790000000007 -26.160999999999998 5.282790000000007 -26.160999999999998 L -9.978209999999992 -26.160999999999998 C -11.180209999999992 -26.160999999999998 -12.155209999999991 -25.185999999999996 -12.155209999999991 -23.983999999999998 C -12.155209999999991 -22.781999999999996 -11.180209999999992 -21.807 -9.978209999999992 -21.807 L -7.436209999999992 -21.807 L -7.436209999999992 -12.458999999999998 L -26.49320999999999 -12.458999999999998 C -27.21420999999999 -12.458999999999998 -27.79920999999999 -11.873999999999999 -27.79920999999999 -11.152999999999999 L -27.79920999999999 -1.195999999999998 L -41.17920999999999 -1.195999999999998 C -41.36220999999999 -1.245999999999998 -41.55120999999999 -1.280999999999998 -41.74920999999999 -1.280999999999998 C -42.952209999999994 -1.280999999999998 -43.92620999999999 -0.30599999999999794 -43.92620999999999 0.8960000000000021 L -43.92620999999999 17.936 C -43.92620999999999 18.514 -43.696209999999994 19.069 -43.28620999999999 19.478 L -25.51520999999999 37.2 C -25.107209999999988 37.606 -24.55420999999999 37.835 -23.97720999999999 37.835 L -2.8112099999999884 37.835 L 13.71679000000001 62.929 L 5.3027900000000106 75.81400000000001 C 4.9197900000000105 76.40100000000001 4.84179000000001 77.13600000000001 5.09479000000001 77.789 L 16.68279000000001 107.781 C 17.006790000000013 108.62 17.81379000000001 109.173 18.71379000000001 109.173 L 48.50979000000001 109.173 C 49.71179000000001 109.173 50.68679000000001 108.19800000000001 50.68679000000001 106.996 L 50.68679000000001 82.63199999999999 L 59.08179000000001 72.862 C 59.42079000000001 72.467 59.607790000000016 71.964 59.607790000000016 71.44399999999999 L 59.607790000000016 58.97799999999999 L 77.93279000000001 33.94399999999999 C 78.20579000000001 33.57099999999999 78.35279000000001 33.12099999999999 78.35279000000001 32.65799999999999 L 78.35279000000001 24.752999999999986 C 78.34979000000001 23.550999999999988 77.37579000000001 22.576999999999984 76.17279 22.576999999999984 z M 4.44779 -21.806 L 13.659790000000001 -13.504000000000001 C 14.06079 -13.144000000000002 14.578790000000001 -12.944 15.117790000000001 -12.944 L 24.981790000000004 -12.944 L 33.24479 -3.588000000000001 L 33.24479 23.526999999999997 L 28.40379 23.526999999999997 C 28.16479 23.258999999999997 27.82579 23.081999999999997 27.43779 23.081999999999997 C 27.049789999999998 23.081999999999997 26.71179 23.258999999999997 26.47279 23.526999999999997 L 13.77679 23.526999999999997 L 3.8387899999999995 12.902999999999997 C 3.8407899999999993 12.876999999999997 3.8537899999999996 12.854999999999997 3.8537899999999996 12.827999999999998 C 3.8537899999999996 12.106999999999998 3.2687899999999996 11.521999999999998 2.5477899999999996 11.521999999999998 L 2.5477899999999996 11.521999999999998 L -4.82221 3.6439999999999984 L -4.82221 -21.806 z M -39.57121 17.034 L -39.57121 1.416999999999998 L -26.49221 1.416999999999998 C -25.77121 1.416999999999998 -25.18621 0.8319999999999981 -25.18621 0.11099999999999799 L -25.18621 -9.845000000000002 L -7.436209999999999 -9.845000000000002 L -7.436209999999999 4.159999999999998 C -7.436209999999999 4.491999999999998 -7.310209999999999 4.810999999999998 -7.084209999999999 5.051999999999999 L -1.0312099999999988 11.523 L -14.799209999999999 11.523 C -15.520209999999999 11.523 -16.10521 12.108 -16.10521 12.829 L -16.10521 33.483000000000004 L -23.07821 33.483000000000004 z M 0.17879 34.462 C -0.22421000000000002 33.851000000000006 -0.9072100000000001 33.482000000000006 -1.63921 33.482000000000006 L -13.49221 33.482000000000006 L -13.49221 14.134000000000007 L 1.4137900000000005 14.134000000000007 L 12.25679 25.724000000000007 C 12.50379 25.988000000000007 12.84979 26.13800000000001 13.210790000000001 26.13800000000001 L 26.131790000000002 26.13800000000001 L 26.131790000000002 69.31800000000001 L 14.743790000000002 69.31800000000001 L 18.141790000000004 64.11400000000002 C 18.616790000000005 63.38800000000002 18.614790000000003 62.45000000000002 18.137790000000003 61.72600000000002 z M 46.85579 80.408 C 46.51679 80.803 46.329789999999996 81.306 46.329789999999996 81.827 L 46.329789999999996 104.821 L 20.203789999999994 104.821 L 9.556789999999994 77.262 L 13.116789999999995 71.81 C 13.281789999999994 71.885 13.461789999999995 71.933 13.654789999999995 71.933 L 27.436789999999995 71.933 C 28.157789999999995 71.933 28.742789999999996 71.34800000000001 28.742789999999996 70.62700000000001 L 28.742789999999996 50.59200000000001 L 42.134789999999995 50.59200000000001 L 42.134789999999995 64.40200000000002 C 42.134789999999995 65.12300000000002 42.719789999999996 65.70800000000001 43.44078999999999 65.70800000000001 L 55.24978999999999 65.70800000000001 L 55.24978999999999 70.63900000000001 z M 73.99579 31.947 L 55.67079 56.980999999999995 C 55.39778999999999 57.35399999999999 55.250789999999995 57.803999999999995 55.250789999999995 58.266999999999996 L 55.250789999999995 63.095 L 44.74878999999999 63.095 L 44.74878999999999 49.285 C 44.74878999999999 48.564 44.16378999999999 47.979 43.442789999999995 47.979 L 28.744789999999995 47.979 L 28.744789999999995 26.139 L 34.55179 26.139 C 35.27278999999999 26.139 35.857789999999994 25.554 35.857789999999994 24.833 L 35.857789999999994 -0.6300000000000026 L 59.546789999999994 26.194999999999997 C 59.95978999999999 26.662999999999997 60.55479 26.930999999999997 61.17878999999999 26.930999999999997 L 73.99678999999999 26.930999999999997 L 73.99678999999999 31.946999999999996 z M 236.43779 62.85 C 236.02479 62.381 235.42879000000002 62.113 234.80379000000002 62.113 L 224.75279000000003 62.113 C 223.54979000000003 62.113 222.57579000000004 63.088 222.57579000000004 64.29 L 222.57579000000004 74.52900000000001 L 217.11979000000005 71.04 L 217.11979000000005 67.093 C 217.11979000000005 65.89 216.14579000000006 64.916 214.94279000000006 64.916 L 202.32479000000006 64.916 C 202.08879000000007 64.916 201.85379000000006 64.954 201.62979000000007 65.03 L 186.44579000000007 70.145 C 185.55979000000008 70.444 184.96379000000007 71.274 184.96379000000007 72.208 L 184.96379000000007 79.553 L 170.42579000000006 87.119 C 169.70579000000006 87.494 169.25379000000007 88.238 169.25379000000007 89.05 L 169.25379000000007 110.30799999999999 C 169.25379000000007 111.50999999999999 170.22879000000006 112.485 171.43079000000006 112.485 L 190.64879000000005 112.485 C 190.89579000000006 112.485 191.13979000000006 112.443 191.37179000000006 112.362 L 207.60679000000005 106.645 L 218.64679000000004 106.645 L 231.70079000000004 121.11 C 232.11379000000005 121.568 232.70079000000004 121.829 233.31779000000003 121.829 L 244.37679000000003 121.829 C 245.57879000000003 121.829 246.55379000000002 120.85499999999999 246.55379000000002 119.65199999999999 L 246.55379000000002 94.06899999999999 L 259.10179 94.03099999999999 C 259.95679 94.02799999999999 260.73079 93.526 261.08079 92.74699999999999 C 261.43079 91.96799999999999 261.29379 91.05599999999998 260.72879 90.41399999999999 z M 244.36879 89.721 C 243.16879 89.724 242.19879 90.69800000000001 242.19879 91.89800000000001 L 242.19879 117.47400000000002 L 234.28479000000002 117.47400000000002 L 221.23079 103.00900000000001 C 220.81779 102.55100000000002 220.23079 102.29000000000002 219.61379000000002 102.29000000000002 L 207.23379000000003 102.29000000000002 C 206.98679 102.29000000000002 206.74279 102.33200000000002 206.51079000000001 102.41300000000003 L 190.27579000000003 108.13000000000002 L 173.60779000000002 108.13000000000002 L 173.60779000000002 90.37200000000003 L 188.14579000000003 82.80600000000003 C 188.86579000000003 82.43100000000003 189.31779000000003 81.68700000000003 189.31779000000003 80.87500000000003 L 189.31779000000003 73.77200000000003 L 202.68179000000003 69.27000000000004 L 212.76579000000004 69.27000000000004 L 212.76579000000004 72.23200000000004 C 212.76579000000004 72.97400000000005 213.14379000000002 73.66600000000004 213.76979000000003 74.06600000000005 L 223.57979000000003 80.33900000000004 C 224.24979000000002 80.76800000000004 225.10179000000002 80.79700000000004 225.79779000000002 80.41400000000004 C 226.49579000000003 80.03200000000004 226.92979000000003 79.30000000000004 226.92979000000003 78.50500000000004 L 226.92979000000003 66.46700000000004 L 233.82079000000002 66.46700000000004 L 254.28579000000002 89.69100000000005 z M 298.79579 -115.672 C 297.80379 -116.352 296.44979 -116.103 295.76879 -115.112 L 288.03379 -103.86399999999999 L 276.98679 -103.86399999999999 C 275.78379 -103.86399999999999 274.80978999999996 -102.889 274.80978999999996 -101.68699999999998 L 274.80978999999996 -93.56499999999998 L 263.96279 -84.55499999999998 L 263.96279 -92.22299999999998 L 270.02579 -99.90199999999999 C 270.32978999999995 -100.28599999999999 270.49478999999997 -100.76199999999999 270.49478999999997 -101.25099999999999 L 270.49478999999997 -106.041 C 270.49478999999997 -107.243 269.51978999999994 -108.218 268.31778999999995 -108.218 L 257.86778999999996 -108.218 C 256.66479 -108.218 255.69078999999996 -107.24300000000001 255.69078999999996 -106.041 L 255.69078999999996 -101.687 L 233.04978999999997 -101.687 C 232.43878999999998 -101.687 231.85778999999997 -101.431 231.44478999999998 -100.981 L 221.86578999999998 -90.53099999999999 C 221.37678999999997 -89.99799999999999 221.18478999999996 -89.25599999999999 221.35278999999997 -88.553 C 221.52178999999998 -87.849 222.02878999999996 -87.27499999999999 222.70578999999998 -87.021 L 230.90778999999998 -83.94500000000001 L 220.80778999999998 -63.370000000000005 L 218.68078999999997 -63.370000000000005 L 218.68078999999997 -73.82000000000001 C 218.68078999999997 -74.346 218.49078999999998 -74.85400000000001 218.14478999999997 -75.25000000000001 L 206.38878999999997 -88.74800000000002 C 205.97578999999996 -89.22300000000001 205.37678999999997 -89.49500000000002 204.74778999999998 -89.49500000000002 L 197.78178999999997 -89.49500000000002 C 196.99378999999996 -89.49500000000002 196.26679 -89.06900000000002 195.88178999999997 -88.38200000000002 L 190.40978999999996 -78.61000000000001 L 129.81478999999996 -78.61000000000001 L 123.47478999999996 -89.70400000000001 C 123.08678999999995 -90.382 122.36578999999996 -90.801 121.58378999999995 -90.801 L 98.50678999999995 -90.801 C 97.98678999999996 -90.801 97.48478999999995 -90.615 97.08978999999995 -90.277 L 88.55778999999995 -82.964 L 76.30078999999995 -82.964 C 75.09778999999995 -82.964 74.12378999999994 -81.989 74.12378999999994 -80.78699999999999 L 74.12378999999994 -55.962999999999994 L 64.43178999999995 -50.74399999999999 L 45.72978999999995 -50.74399999999999 L 48.25478999999995 -53.355999999999995 L 61.932789999999954 -53.355999999999995 C 62.533789999999954 -53.355999999999995 63.10778999999995 -53.60399999999999 63.51978999999996 -54.041999999999994 C 63.93178999999996 -54.48 64.14278999999996 -55.068999999999996 64.10578999999996 -55.66799999999999 L 63.670789999999954 -62.63399999999999 C 63.63278999999996 -63.25399999999999 63.33078999999995 -63.82699999999999 62.843789999999956 -64.21 L 57.61478999999996 -68.31899999999999 L 57.61478999999996 -88.66799999999999 C 57.61478999999996 -89.38999999999999 57.029789999999956 -89.97399999999999 56.30878999999996 -89.97399999999999 L 44.24378999999996 -89.97399999999999 L 44.24378999999996 -112.228 L 51.06678999999996 -107.219 C 51.44878999999996 -106.939 51.900789999999965 -106.797 52.35478999999996 -106.797 C 52.721789999999956 -106.797 53.08978999999996 -106.89 53.42178999999996 -107.077 L 82.53278999999996 -123.458 L 106.34478999999996 -123.458 C 107.49478999999997 -123.458 108.44578999999996 -124.352 108.51778999999996 -125.499 L 109.08778999999996 -134.613 L 112.88878999999996 -130.812 L 112.88878999999996 -125.20000000000002 C 112.88878999999996 -123.99800000000002 113.86278999999996 -123.02300000000001 115.06578999999996 -123.02300000000001 L 123.32578999999997 -123.02300000000001 C 124.52878999999997 -123.02300000000001 125.50278999999998 -123.998 125.50278999999998 -125.20000000000002 L 125.50278999999998 -137.20700000000002 L 170.31678999999997 -154.60100000000003 L 176.92578999999998 -149.38500000000002 L 169.58279 -140.997 C 169.01979 -140.354 168.88579 -139.442 169.23879 -138.66400000000002 C 169.59179 -137.88600000000002 170.36678999999998 -137.38600000000002 171.22079 -137.38600000000002 L 209.13079 -137.38600000000002 L 221.12079 -126.50300000000003 C 221.52179 -126.13900000000002 222.04379 -125.93800000000003 222.58479 -125.93800000000003 L 255.47379 -125.93800000000003 C 256.67679 -125.93800000000003 257.65079000000003 -126.91300000000003 257.65079000000003 -128.11500000000004 C 257.65079000000003 -129.31800000000004 256.67579 -130.29200000000003 255.47379000000004 -130.29200000000003 L 223.42579000000003 -130.29200000000003 L 211.43579000000003 -141.17600000000004 C 211.03479000000002 -141.53900000000004 210.51279000000002 -141.74100000000004 209.97179000000003 -141.74100000000004 L 176.01979000000003 -141.74100000000004 L 181.71079000000003 -148.24100000000004 C 182.10379000000003 -148.69000000000005 182.29579000000004 -149.28100000000003 182.24079000000003 -149.87500000000003 C 182.18679000000003 -150.46900000000002 181.89079000000004 -151.01500000000001 181.42179000000004 -151.38400000000001 L 172.03779000000003 -158.79000000000002 C 171.43279000000004 -159.26800000000003 170.62079000000003 -159.39000000000001 169.90179000000003 -159.11100000000002 L 122.53879000000003 -140.72700000000003 C 121.70079000000004 -140.40200000000004 121.14879000000003 -139.59600000000003 121.14879000000003 -138.69800000000004 L 121.14879000000003 -127.37700000000004 L 117.24279000000003 -127.37700000000004 L 117.24279000000003 -131.71400000000003 C 117.24279000000003 -132.29100000000003 117.01279000000002 -132.84500000000003 116.60479000000002 -133.25300000000001 L 108.75479000000003 -141.103 C 108.14979000000002 -141.709 107.24479000000002 -141.90300000000002 106.44579000000003 -141.60000000000002 C 105.64479000000003 -141.29700000000003 105.09579000000004 -140.55400000000003 105.04279000000002 -139.699 L 104.29979000000003 -127.81200000000001 L 81.96179000000004 -127.81200000000001 C 81.58779000000004 -127.81200000000001 81.21979000000003 -127.71600000000001 80.89479000000004 -127.53200000000001 L 52.51079000000004 -111.56000000000002 L 46.96179000000004 -115.63300000000001 L 63.58479000000004 -127.83900000000001 C 64.34379000000004 -128.39600000000002 64.65779000000003 -129.377 64.36579000000005 -130.27200000000002 C 64.07279000000004 -131.16700000000003 63.23779000000005 -131.77100000000002 62.296790000000044 -131.77100000000002 L 24.83179000000004 -131.77100000000002 C 24.38579000000004 -131.77100000000002 23.95079000000004 -131.63400000000001 23.585790000000042 -131.37900000000002 L 4.01179000000004 -117.71500000000002 C 3.0247900000000403 -117.02700000000002 2.78479000000004 -115.67000000000002 3.4727900000000402 -114.68400000000001 C 4.16179000000004 -113.69700000000002 5.51879000000004 -113.45700000000001 6.50379000000004 -114.14500000000001 L 25.516790000000043 -127.41600000000001 L 55.65479000000005 -127.41600000000001 L 41.99679000000005 -117.38700000000001 C 41.82479000000005 -117.26000000000002 41.68279000000005 -117.10500000000002 41.55679000000005 -116.93800000000002 L 24.69379000000005 -116.93800000000002 C 24.46079000000005 -116.93800000000002 24.23179000000005 -116.87600000000002 24.03179000000005 -116.75800000000001 L 13.697790000000051 -110.68 C 13.075790000000051 -110.31400000000001 12.86879000000005 -109.51400000000001 13.23379000000005 -108.89200000000001 C 13.60079000000005 -108.269 14.40179000000005 -108.06200000000001 15.02179000000005 -108.42800000000001 L 25.04879000000005 -114.32600000000001 L 41.55679000000005 -114.32600000000001 C 41.58379000000005 -114.29100000000001 41.603790000000046 -114.25200000000001 41.63179000000005 -114.218 L 41.63179000000005 -88.66900000000001 C 41.63179000000005 -88.51200000000001 41.67079000000005 -88.36500000000001 41.72079000000005 -88.22600000000001 L 32.35579000000005 -77.59900000000002 L 17.87979000000005 -77.91000000000003 C 17.83679000000005 -77.91200000000002 17.79779000000005 -77.89600000000003 17.75479000000005 -77.89400000000002 C 17.677790000000048 -77.90800000000002 17.60679000000005 -77.94000000000003 17.52479000000005 -77.94000000000003 L 7.12979000000005 -77.94000000000003 L 5.99179000000005 -86.01000000000002 L 27.100790000000053 -86.01000000000002 C 28.303790000000053 -86.01000000000002 29.277790000000053 -86.98500000000001 29.277790000000053 -88.18700000000003 L 29.277790000000053 -99.50800000000002 C 29.277790000000053 -100.71100000000003 28.30279000000005 -101.68500000000003 27.100790000000053 -101.68500000000003 C 25.898790000000055 -101.68500000000003 24.923790000000054 -100.71000000000004 24.923790000000054 -99.50800000000002 L 24.923790000000054 -90.36400000000002 L 4.048790000000054 -90.36400000000002 C 3.619790000000054 -90.36400000000002 3.2007900000000538 -90.23700000000002 2.8437900000000536 -90.00000000000001 L -26.309209999999943 -70.62600000000002 C -26.797209999999943 -70.30200000000002 -27.134209999999943 -69.79400000000003 -27.243209999999944 -69.21900000000002 C -27.353209999999944 -68.64300000000003 -27.225209999999944 -68.04800000000002 -26.889209999999945 -67.56700000000002 L -14.021209999999945 -49.13400000000002 C -13.368209999999944 -48.197000000000024 -12.102209999999944 -47.92500000000002 -11.120209999999945 -48.511000000000024 L 14.769790000000055 -63.974000000000025 L 23.610790000000055 -52.05800000000002 C 24.295790000000054 -51.133000000000024 25.585790000000056 -50.90200000000002 26.550790000000056 -51.53300000000002 L 37.871790000000054 -58.935000000000024 C 38.117790000000056 -59.096000000000025 38.328790000000055 -59.30500000000002 38.49179000000005 -59.54900000000002 L 42.19979000000005 -65.11100000000002 L 54.65079000000005 -65.11100000000002 L 59.38779000000005 -61.38900000000002 L 59.61779000000005 -57.70900000000002 L 47.33379000000005 -57.70900000000002 C 46.74379000000005 -57.70900000000002 46.17879000000005 -57.469000000000015 45.76779000000005 -57.045000000000016 L 39.033790000000046 -50.07800000000002 C 38.42679000000005 -49.45000000000002 38.253790000000045 -48.51900000000002 38.594790000000046 -47.71500000000002 C 38.936790000000045 -46.91000000000002 39.725790000000046 -46.38800000000002 40.598790000000044 -46.38800000000002 L 50.27979000000004 -46.38800000000002 L 50.27979000000004 -22.92300000000002 C 50.27979000000004 -22.38600000000002 50.47879000000004 -21.86800000000002 50.83779000000004 -21.468000000000018 L 75.21479000000004 5.6579999999999835 C 75.60979000000003 6.0969999999999835 76.16579000000003 6.356999999999983 76.75479000000004 6.377999999999983 C 77.35779000000004 6.402999999999984 77.91779000000004 6.179999999999983 78.34379000000004 5.771999999999983 L 88.81079000000004 -4.301000000000017 C 89.64979000000004 -5.109000000000017 89.70579000000004 -6.433000000000018 88.93679000000004 -7.307000000000016 L 75.57179000000005 -22.509000000000015 L 82.80579000000004 -22.509000000000015 L 100.34879000000004 -13.121000000000015 L 108.74179000000004 -4.075000000000015 C 109.15379000000004 -3.6310000000000153 109.73279000000004 -3.378000000000015 110.33779000000004 -3.378000000000015 L 114.19379000000004 -3.378000000000015 L 121.87079000000003 18.431999999999984 C 122.12879000000002 19.165999999999983 122.75979000000002 19.705999999999985 123.52379000000003 19.848999999999986 C 124.28879000000003 19.994999999999987 125.07179000000004 19.715999999999987 125.57779000000004 19.125999999999987 L 130.04379000000003 13.914999999999987 C 130.38179000000002 13.519999999999987 130.56779000000003 13.017999999999986 130.56779000000003 12.497999999999987 L 130.56779000000003 3.9549999999999876 L 143.88979000000003 -5.331000000000012 L 146.34279000000004 2.364999999999988 C 146.62979000000004 3.266999999999988 147.46979000000005 3.880999999999988 148.41679000000005 3.880999999999988 L 151.07879000000005 3.880999999999988 L 151.07879000000005 16.929999999999986 C 151.07879000000005 17.566999999999986 151.35779000000005 18.171999999999986 151.84279000000006 18.585999999999984 L 167.55979000000008 32.002999999999986 C 167.96479000000008 32.34899999999998 168.46779000000006 32.52399999999999 168.9727900000001 32.52399999999999 C 169.4017900000001 32.52399999999999 169.8327900000001 32.396999999999984 170.2047900000001 32.140999999999984 C 171.0167900000001 31.582999999999984 171.3537900000001 30.549999999999983 171.0257900000001 29.620999999999984 L 166.3017900000001 16.246999999999986 L 166.3017900000001 13.003999999999985 L 169.4637900000001 17.163999999999987 C 169.8757900000001 17.70599999999999 170.5167900000001 18.023999999999987 171.1967900000001 18.023999999999987 L 182.5427900000001 18.023999999999987 C 183.32979000000012 18.023999999999987 184.0547900000001 17.599999999999987 184.4397900000001 16.913999999999987 C 184.8257900000001 16.227999999999987 184.81179000000012 15.387999999999987 184.4027900000001 14.715999999999987 L 174.7657900000001 -1.1330000000000133 L 179.6637900000001 -6.587000000000013 C 180.36479000000008 -7.368000000000013 180.4087900000001 -8.537000000000013 179.76979000000009 -9.368000000000013 L 176.4327900000001 -13.711000000000013 L 186.7977900000001 -27.17800000000001 C 186.8367900000001 -27.22900000000001 186.8737900000001 -27.28200000000001 186.9087900000001 -27.336000000000013 L 195.7077900000001 -41.143000000000015 L 200.5077900000001 -44.140000000000015 L 206.7617900000001 -32.823000000000015 C 207.0487900000001 -32.30300000000001 207.5357900000001 -31.924000000000014 208.10979000000012 -31.772000000000016 C 208.68179000000012 -31.620000000000015 209.29479000000012 -31.709000000000017 209.80079000000012 -32.01700000000002 L 220.06379000000013 -38.274000000000015 C 221.0907900000001 -38.90000000000001 221.41479000000012 -40.240000000000016 220.78879000000012 -41.26600000000001 C 220.1617900000001 -42.29300000000001 218.8217900000001 -42.61500000000001 217.79579000000012 -41.99200000000001 L 209.47279000000012 -36.91700000000001 L 203.20779000000013 -48.25500000000001 C 202.91879000000014 -48.77800000000001 202.42679000000012 -49.15900000000001 201.84879000000012 -49.31000000000001 C 201.27079000000012 -49.46000000000001 200.6557900000001 -49.36600000000001 200.14879000000013 -49.04900000000001 L 192.98379000000014 -44.575 C 192.70879000000014 -44.403000000000006 192.47479000000016 -44.172000000000004 192.30079000000015 -43.899 L 190.90979000000016 -41.716 L 169.99979000000016 -31.196 L 126.88979000000016 -31.196 L 126.88979000000016 -47.753 L 126.88979000000016 -49.844 L 126.88979000000016 -56.206 L 168.80379000000016 -56.206 C 169.10779000000016 -56.206 169.40179000000018 -56.312000000000005 169.63579000000016 -56.505 L 191.10279000000014 -74.254 L 191.68579000000014 -74.254 C 192.47379000000015 -74.254 193.20079000000013 -74.68 193.58579000000015 -75.367 L 199.05779000000015 -85.13900000000001 L 203.75679000000017 -85.13900000000001 L 214.32679000000016 -73.00300000000001 L 214.32679000000016 -61.19100000000002 C 214.32679000000016 -59.988000000000014 215.30179000000015 -59.01400000000002 216.50379000000015 -59.01400000000002 L 222.16379000000015 -59.01400000000002 C 222.99379000000016 -59.01400000000002 223.75279000000015 -59.48600000000002 224.11779000000016 -60.23200000000001 L 235.87379000000016 -84.17900000000002 C 236.14379000000017 -84.73100000000002 236.16979000000015 -85.37000000000002 235.94279000000014 -85.94100000000002 C 235.71679000000015 -86.51200000000001 235.25879000000015 -86.96100000000001 234.68379000000016 -87.17600000000002 L 227.25379000000015 -89.96200000000002 L 234.00579000000016 -97.32900000000002 L 257.86679000000015 -97.32900000000002 C 259.06879000000015 -97.32900000000002 260.0437900000002 -98.30400000000002 260.0437900000002 -99.50600000000003 L 260.0437900000002 -103.86000000000003 L 266.1397900000002 -103.86000000000003 L 266.1397900000002 -102.00300000000003 L 260.0767900000002 -94.32400000000003 C 259.7727900000002 -93.94000000000003 259.6077900000002 -93.46400000000003 259.6077900000002 -92.97500000000002 L 259.6077900000002 -79.91300000000003 C 259.6077900000002 -79.06900000000003 260.0957900000002 -78.30100000000003 260.8597900000002 -77.94200000000002 C 261.6237900000002 -77.58300000000003 262.5267900000002 -77.69900000000003 263.1757900000002 -78.23800000000003 L 278.3767900000002 -90.86500000000002 C 278.8737900000002 -91.27900000000002 279.1627900000002 -91.89300000000003 279.1627900000002 -92.54000000000002 L 279.1627900000002 -99.50600000000001 L 289.1767900000002 -99.50600000000001 C 289.8937900000002 -99.50600000000001 290.5647900000002 -99.85900000000001 290.9697900000002 -100.45000000000002 L 299.35379000000023 -112.64100000000002 C 300.03779000000026 -113.63500000000002 299.7867900000002 -114.99000000000002 298.79579000000024 -115.67200000000003 z M 14.15879 -68.729 C 14.153789999999999 -68.712 14.15879 -68.696 14.15479 -68.679 L 1.8877900000000007 -61.353 L -3.3542099999999992 -68.007 L 6.834790000000001 -74.634 C 7.076790000000001 -74.791 7.244790000000001 -75.023 7.339790000000001 -75.284 L 16.09779 -75.284 z M -11.61221 -53.29 L -22.04421 -68.234 L 3.4697899999999997 -85.19 L 4.71279 -76.37 L -5.9772099999999995 -69.417 C -5.99421 -69.406 -6.003209999999999 -69.388 -6.019209999999999 -69.376 C -6.03621 -69.364 -6.0572099999999995 -69.361 -6.074209999999999 -69.348 C -6.130209999999999 -69.304 -6.160209999999999 -69.243 -6.206209999999999 -69.192 C -6.265209999999999 -69.128 -6.327209999999999 -69.07 -6.371209999999999 -68.99799999999999 C -6.416209999999999 -68.92399999999999 -6.440209999999999 -68.84599999999999 -6.469209999999999 -68.76599999999999 C -6.4982099999999985 -68.68799999999999 -6.5302099999999985 -68.615 -6.544209999999999 -68.53299999999999 C -6.558209999999999 -68.44899999999998 -6.551209999999998 -68.36699999999999 -6.548209999999998 -68.28199999999998 C -6.5462099999999985 -68.19899999999998 -6.548209999999998 -68.11899999999999 -6.5302099999999985 -68.03799999999998 C -6.511209999999998 -67.95299999999999 -6.470209999999999 -67.87599999999998 -6.434209999999998 -67.79499999999999 C -6.407209999999998 -67.73399999999998 -6.398209999999999 -67.66799999999999 -6.361209999999998 -67.60999999999999 C -6.347209999999998 -67.58799999999998 -6.327209999999998 -67.57199999999999 -6.311209999999998 -67.55099999999999 C -6.302209999999998 -67.53899999999999 -6.301209999999998 -67.52499999999999 -6.292209999999998 -67.51399999999998 L -0.37420999999999793 -60.00199999999998 z M 41.03379 -69.466 C 40.30579 -69.466 39.62679 -69.10199999999999 39.22279 -68.497 L 35.115790000000004 -62.337 L 25.884790000000002 -56.30200000000001 L 17.09279 -68.152 C 17.006790000000002 -68.268 16.90979 -68.373 16.805790000000002 -68.467 L 18.820790000000002 -75.27799999999999 L 32.90579 -74.975 C 33.27779 -74.958 33.65879 -75.128 33.913790000000006 -75.41699999999999 L 44.353790000000004 -87.26399999999998 C 44.37979000000001 -87.29399999999998 44.38779 -87.33199999999998 44.410790000000006 -87.36299999999999 L 55.00179000000001 -87.36299999999999 L 55.00179000000001 -69.46599999999998 L 41.03379000000001 -69.46599999999998 z M 77.33379 -52.746 C 78.03878999999999 -53.126000000000005 78.47878999999999 -53.862 78.47878999999999 -54.663000000000004 L 78.47878999999999 -69.128 C 78.79478999999999 -68.95 79.15378999999999 -68.84 79.54279 -68.84 L 83.09979 -68.84 L 83.09979 -50.861000000000004 L 73.83179 -50.861000000000004 z M 102.72279 -16.79 L 88.70579000000001 -24.291999999999998 L 106.68679 -46.44799999999999 L 124.27679 -46.44799999999999 L 124.27679 -28.693999999999992 L 109.25879 -9.920999999999992 L 103.29179 -16.351999999999993 C 103.12779 -16.52799999999999 102.93579000000001 -16.676999999999992 102.72279 -16.789999999999992 z M 155.43079 15.923 L 155.43079 1.7010000000000005 C 155.43079 0.49800000000000044 154.45579 -0.47599999999999953 153.25379 -0.47599999999999953 L 152.45979 -0.47599999999999953 L 158.64479 -9.286 L 164.30679 -9.286 L 164.30679 4.394 C 164.01379 4.368 163.71779 4.38 163.42779000000002 4.477 C 162.54179000000002 4.776000000000001 161.94579000000002 5.606 161.94579000000002 6.540000000000001 L 161.94579000000002 16.618000000000002 C 161.94579000000002 16.865000000000002 161.98779000000002 17.110000000000003 162.06979 17.343000000000004 L 164.21779 23.424000000000003 z M 170.30879 -28.585 C 170.51279 -28.585 170.71379 -28.633 170.89578999999998 -28.724 L 188.16478999999998 -37.413 L 183.28679 -29.758999999999997 L 171.95979 -15.041999999999996 C 171.35779 -14.259999999999996 171.35779 -13.170999999999996 171.95879 -12.387999999999996 L 175.21379 -8.151999999999997 L 170.44279 -2.839999999999997 C 169.80179 -2.1249999999999973 169.70379 -1.0749999999999973 170.20279 -0.25399999999999734 L 178.66879 13.669000000000002 L 172.27479 13.669000000000002 L 166.91979 6.623000000000002 L 166.91979 -10.590999999999998 C 166.91979 -11.312999999999997 166.33479 -11.896999999999998 165.61379 -11.896999999999998 L 160.47978999999998 -11.896999999999998 L 163.71878999999998 -16.509999999999998 C 163.87378999999999 -16.729999999999997 163.95578999999998 -16.991999999999997 163.95578999999998 -17.259999999999998 L 163.95578999999998 -28.583 L 170.30879 -28.583 z M 161.34279 -28.585 L 161.34279 -17.675 L 149.77579 -1.1999999999999993 L 147.13879 -9.469 C 146.92879 -10.128 146.41879 -10.648 145.76379 -10.87 C 145.10879 -11.091999999999999 144.38779 -10.989999999999998 143.81979 -10.594 L 127.14379000000001 1.029 C 126.55979 1.436 126.21179000000001 2.1029999999999998 126.21179000000001 2.815 L 126.21179000000001 11.689 L 124.72379000000001 13.426 L 117.78779 -6.281000000000001 C 117.48079 -7.1530000000000005 116.65779 -7.735 115.73379 -7.735 L 111.28578999999999 -7.735 L 111.05378999999999 -7.985 L 126.60078999999999 -27.419999999999998 C 126.78578999999999 -27.651999999999997 126.88779 -27.938999999999997 126.88779 -28.235999999999997 L 126.88779 -28.584999999999997 z M 168.33279 -58.82 L 125.58278999999999 -58.82 C 124.86178999999998 -58.82 124.27678999999999 -58.235 124.27678999999999 -57.514 L 124.27678999999999 -49.846000000000004 L 124.27678999999999 -49.06100000000001 L 106.06478999999999 -49.06100000000001 C 105.67078999999998 -49.06100000000001 105.29878999999998 -48.88400000000001 105.04978999999999 -48.57800000000001 L 86.35978999999999 -25.54800000000001 L 84.37778999999999 -26.608000000000008 C 84.06178999999999 -26.777000000000008 83.70879 -26.866000000000007 83.35078999999999 -26.866000000000007 L 70.75778999999999 -26.866000000000007 C 69.90178999999999 -26.866000000000007 69.12678999999999 -26.365000000000006 68.77478999999998 -25.586000000000006 C 68.42178999999999 -24.807000000000006 68.55778999999998 -23.894000000000005 69.12278999999998 -23.251000000000005 L 84.29178999999998 -5.998000000000005 L 76.94678999999998 1.0709999999999953 L 54.633789999999976 -23.759000000000004 L 54.633789999999976 -46.389 L 64.98178999999998 -46.389 C 65.34278999999998 -46.389 65.69678999999998 -46.478 66.01378999999997 -46.649 L 69.04878999999997 -48.283 C 69.23678999999997 -47.272 70.11978999999997 -46.505 71.18578999999997 -46.505 L 85.27778999999997 -46.505 C 86.47978999999997 -46.505 87.45478999999997 -47.480000000000004 87.45478999999997 -48.682 L 87.45478999999997 -71.015 C 87.45478999999997 -72.217 86.48078999999997 -73.19200000000001 85.27778999999997 -73.19200000000001 L 79.54378999999997 -73.19200000000001 C 79.15478999999998 -73.19200000000001 78.79578999999997 -73.08200000000001 78.47978999999998 -72.90400000000001 L 78.47978999999998 -78.60900000000001 L 89.36478999999999 -78.60900000000001 C 89.88478999999998 -78.60900000000001 90.38678999999999 -78.79500000000002 90.78178999999999 -79.13300000000001 L 99.31378999999998 -86.44600000000001 L 120.32178999999998 -86.44600000000001 L 126.66178999999998 -75.35200000000002 C 127.04978999999999 -74.67400000000002 127.77078999999998 -74.25500000000002 128.55279 -74.25500000000002 L 187.00378999999998 -74.25500000000002 z M 170.47779 47.319 C 169.97979 47.319 169.47979 47.150000000000006 169.06979 46.803000000000004 L 148.62379 29.466000000000005 C 147.70679 28.688000000000006 147.59379 27.314000000000004 148.37079000000003 26.397000000000006 C 149.14979000000002 25.479000000000006 150.52179000000004 25.366000000000007 151.43979000000002 26.144000000000005 L 171.88579000000001 43.48100000000001 C 172.80279000000002 44.25900000000001 172.91579000000002 45.632000000000005 172.13879 46.55000000000001 C 171.70879 47.058000000000014 171.09579 47.31900000000001 170.47779 47.31900000000001 z M 179.12379 38.61 C 177.92079 38.61 176.94679000000002 37.635 176.94679000000002 36.433 L 176.94679000000002 30.441 C 176.94679000000002 29.238 177.92179000000002 28.264 179.12379 28.264 C 180.32579 28.264 181.30079 29.239 181.30079 30.441 L 181.30079 36.433 C 181.30079 37.636 180.32579 38.61 179.12379 38.61 z M 198.69879 29.911 L 199.68279 29.006 C 200.56879 28.191 201.94479 28.249 202.75879 29.134 C 203.57279 30.019000000000002 203.51579 31.396 202.63079000000002 32.21 L 201.02179 33.69 C 200.61979000000002 34.059999999999995 200.09379 34.265 199.54779000000002 34.265 L 195.71379000000002 34.265 L 192.70179000000002 37.722 C 192.27179 38.216 191.66679000000002 38.469 191.05979000000002 38.469 C 190.55179 38.469 190.04279000000002 38.293 189.62979 37.933 C 188.72279 37.143 188.62879 35.768 189.41879 34.861 L 193.08179 30.656999999999996 C 193.49479000000002 30.181999999999995 194.09379 29.909999999999997 194.72279 29.909999999999997 L 198.69879 29.909999999999997 z M 250.56479 51.201 L 250.56479 49.11 L 235.85079 40.423 L 235.78779 50.728 C 235.77979 51.924 234.80779 52.891 233.61079 52.891 L 222.27179 52.891 C 221.06979 52.891 220.09479000000002 51.916 220.09479000000002 50.714 L 220.09479000000002 48.25 C 220.09479000000002 47.048 221.06979 46.073 222.27179 46.073 C 223.47479 46.073 224.44879 47.048 224.44879 48.25 L 224.44879 48.537 L 231.44679 48.537 L 231.50279 39.248999999999995 L 229.01979 39.23499999999999 L 226.04779 41.82899999999999 C 225.58979 42.23 224.98779 42.422999999999995 224.37579 42.352 C 223.76979 42.285 223.21979 41.967 222.85979 41.474 L 220.96479 38.885999999999996 C 220.68878999999998 38.50899999999999 220.54179 38.053999999999995 220.54479 37.586999999999996 L 220.56179 34.76199999999999 C 220.56979 33.56399999999999 221.54279 32.59799999999999 222.73879 32.59799999999999 C 222.74278999999999 32.59799999999999 222.74778999999998 32.59799999999999 222.75179 32.59799999999999 C 223.95479 32.605999999999995 224.92279 33.58599999999999 224.91579 34.78799999999999 L 224.90278999999998 36.89499999999999 L 224.97178999999997 36.98899999999999 L 226.77778999999998 35.41299999999999 C 227.17378999999997 35.06699999999999 227.68278999999998 34.87599999999999 228.20879 34.87599999999999 C 228.21278999999998 34.87599999999999 228.21679 34.87599999999999 228.22179 34.87599999999999 L 233.70579 34.90899999999999 C 234.25279 34.91199999999999 234.77379000000002 35.126999999999995 235.17179000000002 35.49799999999999 C 235.63179000000002 35.44099999999999 236.11179 35.52199999999999 236.54179000000002 35.77599999999999 L 253.84779000000003 45.993999999999986 C 254.51079000000004 46.384999999999984 254.91779000000002 47.097999999999985 254.91779000000002 47.86799999999999 L 254.91779000000002 51.20199999999999 C 254.91779000000002 52.40399999999999 253.94379000000004 53.37899999999999 252.74079000000003 53.37899999999999 C 251.53779000000003 53.37899999999999 250.56479000000004 52.40399999999999 250.56479000000004 51.20099999999999 z M 292.72679 107.545 L 287.07878999999997 115.98 C 286.67479 116.584 285.99578999999994 116.946 285.26978999999994 116.946 L 283.00278999999995 116.946 L 278.1407899999999 124.89099999999999 C 277.7447899999999 125.53699999999999 277.0407899999999 125.93199999999999 276.2837899999999 125.93199999999999 L 271.1867899999999 125.93199999999999 C 269.9847899999999 125.93199999999999 269.0097899999999 124.957 269.0097899999999 123.75499999999998 C 269.0097899999999 122.55299999999998 269.9847899999999 121.57799999999997 271.1867899999999 121.57799999999997 L 275.0637899999999 121.57799999999997 L 279.92578999999995 113.63299999999998 C 280.32178999999996 112.98699999999998 281.02579 112.59199999999998 281.78279 112.59199999999998 L 284.10778999999997 112.59199999999998 L 289.10979 105.12299999999999 C 289.77878999999996 104.12299999999999 291.13178999999997 103.85699999999999 292.12978999999996 104.52499999999999 C 293.12778999999995 105.19399999999999 293.39579 106.547 292.72678999999994 107.54499999999999 z M 253.37579 -44.721 C 253.37579 -43.519 252.40079 -42.544 251.19879 -42.544 L 246.69279 -42.544 L 246.69279 -36.159 C 246.69279 -34.955999999999996 245.71879 -33.982 244.51579 -33.982 L 238.60579 -33.982 L 237.72879 -27.394 C 237.66579000000002 -26.924999999999997 237.45279 -26.488999999999997 237.11979 -26.151999999999997 L 229.20279 -18.131999999999998 C 228.79379 -17.717999999999996 228.23578999999998 -17.483999999999998 227.65379 -17.483999999999998 L 223.18479 -17.483999999999998 L 221.70879 -16.061999999999998 L 221.70879 -5.422999999999998 L 223.42279 -5.422999999999998 L 234.97079 -14.230999999999998 C 235.92779 -14.959999999999997 237.29279 -14.775999999999998 238.02279 -13.819999999999999 C 238.75179 -12.863999999999999 238.56778999999997 -11.497999999999998 237.61078999999998 -10.768999999999998 L 225.47878999999998 -1.5149999999999988 C 225.09878999999998 -1.2259999999999989 224.63478999999998 -1.0689999999999988 224.15778999999998 -1.0689999999999988 L 219.53078999999997 -1.0689999999999988 C 218.32878999999997 -1.0689999999999988 217.35378999999998 -2.0439999999999987 217.35378999999998 -3.2459999999999987 L 217.35378999999998 -16.988 C 217.35378999999998 -17.579 217.59479 -18.146 218.02078999999998 -18.556 L 220.79679 -21.229 C 221.20279 -21.619999999999997 221.74379 -21.838 222.30678999999998 -21.838 L 226.74379 -21.838 L 233.50978999999998 -28.691000000000003 L 234.54079 -36.446000000000005 C 234.68579 -37.528000000000006 235.60779 -38.336000000000006 236.69878999999997 -38.336000000000006 L 242.33778999999998 -38.336000000000006 L 242.33778999999998 -44.721000000000004 C 242.33778999999998 -45.92400000000001 243.31178999999997 -46.898 244.51478999999998 -46.898 L 251.19778999999997 -46.898 C 252.40078999999997 -46.898 253.37578999999997 -45.923 253.37578999999997 -44.721000000000004 z M 199.20579 6.143 L 199.20579 -0.39200000000000035 C 199.20579 -0.8610000000000003 199.35779 -1.3190000000000004 199.63879 -1.6950000000000003 L 207.14779 -11.745000000000001 C 207.86778999999999 -12.708 209.23379 -12.907 210.19478999999998 -12.186000000000002 C 211.15778999999998 -11.467000000000002 211.35578999999998 -10.102000000000002 210.63579 -9.139000000000001 L 203.55979 0.3309999999999995 L 203.55979 6.1419999999999995 C 203.55979 7.345 202.58479 8.318999999999999 201.38279 8.318999999999999 C 200.18079 8.319999999999999 199.20579 7.344999999999999 199.20579 6.142999999999999 z M 199.20579 14.199 C 199.20579 12.996 200.18079 12.022 201.38279 12.022 C 202.58479 12.022 203.55979 12.996 203.55979 14.199 L 203.55979 16.732 L 208.99979 16.732 C 209.80279 16.732 210.53978999999998 17.173 210.91879 17.881 L 213.57179 22.833 C 214.13879 23.892999999999997 213.73979 25.212 212.68079 25.779999999999998 C 212.35379 25.955 212.00179 26.037999999999997 211.65479 26.038999999999998 C 210.87878999999998 26.038999999999998 210.12679 25.621 209.73479 24.889 L 207.69679 21.086 L 201.38379 21.086 C 200.18079 21.086 199.20679 20.110999999999997 199.20679 18.909 L 199.20679 14.198999999999998 z M -177.50021 -150.25 C -177.97721 -150.646 -178.26321000000002 -151.227 -178.28521 -151.847 C -178.30821 -152.467 -178.06521 -153.067 -177.61721 -153.496 L -170.33321 -160.485 C -169.64521000000002 -161.14700000000002 -168.60521 -161.282 -167.76921000000002 -160.818 L -159.53921000000003 -156.245 C -158.48821000000004 -155.661 -158.10921000000002 -154.335 -158.69321000000002 -153.284 C -159.27821000000003 -152.233 -160.60321000000002 -151.856 -161.65321000000003 -152.438 L -168.47821000000002 -156.23 L -172.84221000000002 -152.04299999999998 L -163.71121000000002 -144.46499999999997 C -163.21321000000003 -144.051 -162.92421000000002 -143.43699999999998 -162.92421000000002 -142.78999999999996 L -162.92421000000002 -138.23499999999996 L -151.02321 -138.23499999999996 L -151.02321 -144.63699999999994 C -151.02321 -145.83999999999995 -150.04821 -146.81399999999994 -148.84621 -146.81399999999994 C -147.64321 -146.81399999999994 -146.66921000000002 -145.83899999999994 -146.66921000000002 -144.63699999999994 L -146.66921000000002 -136.05799999999994 C -146.66921000000002 -134.85499999999993 -147.64421000000002 -133.88099999999994 -148.84621 -133.88099999999994 L -165.10121 -133.88099999999994 C -166.30421 -133.88099999999994 -167.27821 -134.85499999999993 -167.27821 -136.05799999999994 L -167.27821 -141.76799999999994 z M -224.21921 -137.476 C -224.74021 -138.559 -224.28421 -139.85999999999999 -223.20021 -140.381 L -214.96321 -144.339 C -214.66921 -144.48 -214.34621 -144.554 -214.02021 -144.554 L -200.11320999999998 -144.554 C -198.91120999999998 -144.554 -197.93621 -143.579 -197.93621 -142.377 C -197.93621 -141.174 -198.91120999999998 -140.20000000000002 -200.11320999999998 -140.20000000000002 L -213.52420999999998 -140.20000000000002 L -221.31420999999997 -136.45700000000002 C -221.61820999999998 -136.31100000000004 -221.93920999999997 -136.24200000000002 -222.25520999999998 -136.24200000000002 C -223.06721 -136.241 -223.84520999999998 -136.69600000000003 -224.21920999999998 -137.47600000000003 z M 77.58179 -141 L 77.58179 -155.314 C 77.58179 -156.517 78.55678999999999 -157.49099999999999 79.75879 -157.49099999999999 C 80.96179000000001 -157.49099999999999 81.93579000000001 -156.517 81.93579000000001 -155.314 L 81.93579000000001 -141 C 81.93579000000001 -139.797 80.96079000000002 -138.823 79.75879 -138.823 C 78.55579 -138.823 77.58179 -139.798 77.58179 -141 z M -27.81221 -95.458 C -28.53521 -96.419 -28.34221 -97.78399999999999 -27.38021 -98.506 C -26.421210000000002 -99.229 -25.05421 -99.035 -24.332210000000003 -98.074 L -20.563210000000005 -93.062 L -11.235210000000006 -98.964 L -18.728210000000004 -110.512 C -19.382210000000004 -111.521 -19.095210000000005 -112.869 -18.086210000000005 -113.523 C -17.080210000000005 -114.17699999999999 -15.730210000000005 -113.89099999999999 -15.075210000000006 -112.88199999999999 L -6.384210000000005 -99.487 C -6.068210000000005 -98.999 -5.9602100000000044 -98.404 -6.084210000000005 -97.836 C -6.209210000000005 -97.268 -6.555210000000005 -96.773 -7.047210000000005 -96.462 L -19.933210000000003 -88.309 C -20.294210000000003 -88.081 -20.697210000000002 -87.972 -21.09521 -87.972 C -21.758210000000002 -87.972 -22.41121 -88.27499999999999 -22.837210000000002 -88.841 z M 175.80379 48.142 L 199.05479 48.142 C 200.25779 48.142 201.23179 49.116 201.23179 50.319 C 201.23179 51.522000000000006 200.25679 52.496 199.05479 52.496 L 175.80379 52.496 C 174.60179 52.496 173.62679 51.521 173.62679 50.319 C 173.62679 49.117000000000004 174.60179 48.142 175.80379 48.142 z M 208.14979 47.319 L 208.14979 48.142 L 208.74579 48.142 C 209.94779 48.142 210.92279 49.116 210.92279 50.319 C 210.92279 51.522000000000006 209.94779 52.496 208.74579 52.496 L 205.97279 52.496 C 204.77079 52.496 203.79579 51.521 203.79579 50.319 L 203.79579 47.319 C 203.79579 46.117000000000004 204.77079 45.142 205.97279 45.142 C 207.17479 45.142 208.14979 46.117000000000004 208.14979 47.319 z M 210.45079 40.235 L 206.48179000000002 40.235 C 205.27879000000001 40.235 204.30479000000003 39.261 204.30479000000003 38.058 C 204.30479000000003 36.855 205.27879000000001 35.881 206.48179000000002 35.881 L 208.93279 35.881 L 210.13979 32.605000000000004 C 210.55479 31.476000000000003 211.80579 30.897000000000006 212.93479 31.315000000000005 C 214.06278999999998 31.731000000000005 214.64078999999998 32.982000000000006 214.22478999999998 34.11000000000001 L 212.49379 38.81000000000001 C 212.17779 39.66600000000001 211.36279 40.23500000000001 210.45078999999998 40.23500000000001 z" stroke-linecap="round" />
</g>
</svg>